<mxfile host="app.diagrams.net" modified="2024-02-01T10:48:03.983Z" agent="Mozilla/5.0 (Windows NT 10.0; Win64; x64) AppleWebKit/537.36 (KHTML, like Gecko) Chrome/121.0.0.0 Safari/537.36" etag="ITqQAA-LFuF9j8i3u7TT" version="23.1.0" type="github">
  <diagram id="nv4LuyD0DYh1rWrDZi3e" name="Page-1">
    <mxGraphModel dx="1851" dy="527" grid="1" gridSize="10" guides="1" tooltips="1" connect="1" arrows="1" fold="1" page="1" pageScale="1" pageWidth="827" pageHeight="1169" math="0" shadow="0">
      <root>
        <mxCell id="0" />
        <mxCell id="1" parent="0" />
        <mxCell id="K5hyXtgFJHPS_Cu2W4zV-10" style="edgeStyle=orthogonalEdgeStyle;rounded=0;orthogonalLoop=1;jettySize=auto;html=1;entryX=0.5;entryY=0;entryDx=0;entryDy=0;" parent="1" source="K5hyXtgFJHPS_Cu2W4zV-1" target="K5hyXtgFJHPS_Cu2W4zV-8" edge="1">
          <mxGeometry relative="1" as="geometry" />
        </mxCell>
        <mxCell id="K5hyXtgFJHPS_Cu2W4zV-1" value="MERJNT CABINET" style="rounded=0;whiteSpace=wrap;html=1;" parent="1" vertex="1">
          <mxGeometry x="40" y="40" width="120" height="60" as="geometry" />
        </mxCell>
        <mxCell id="K5hyXtgFJHPS_Cu2W4zV-22" style="edgeStyle=orthogonalEdgeStyle;rounded=0;orthogonalLoop=1;jettySize=auto;html=1;entryX=0.5;entryY=0;entryDx=0;entryDy=0;" parent="1" source="K5hyXtgFJHPS_Cu2W4zV-2" target="K5hyXtgFJHPS_Cu2W4zV-14" edge="1">
          <mxGeometry relative="1" as="geometry" />
        </mxCell>
        <mxCell id="K5hyXtgFJHPS_Cu2W4zV-2" value="CLENT CABINET" style="rounded=0;whiteSpace=wrap;html=1;" parent="1" vertex="1">
          <mxGeometry x="680" y="40" width="120" height="60" as="geometry" />
        </mxCell>
        <mxCell id="K5hyXtgFJHPS_Cu2W4zV-29" style="edgeStyle=orthogonalEdgeStyle;rounded=0;orthogonalLoop=1;jettySize=auto;html=1;entryX=0.5;entryY=0;entryDx=0;entryDy=0;" parent="1" source="K5hyXtgFJHPS_Cu2W4zV-3" target="K5hyXtgFJHPS_Cu2W4zV-28" edge="1">
          <mxGeometry relative="1" as="geometry">
            <Array as="points">
              <mxPoint x="470" y="130" />
              <mxPoint x="470" y="130" />
            </Array>
          </mxGeometry>
        </mxCell>
        <mxCell id="K5hyXtgFJHPS_Cu2W4zV-31" style="edgeStyle=orthogonalEdgeStyle;rounded=0;orthogonalLoop=1;jettySize=auto;html=1;entryX=1;entryY=0.5;entryDx=0;entryDy=0;" parent="1" source="K5hyXtgFJHPS_Cu2W4zV-3" target="K5hyXtgFJHPS_Cu2W4zV-1" edge="1">
          <mxGeometry relative="1" as="geometry" />
        </mxCell>
        <mxCell id="K5hyXtgFJHPS_Cu2W4zV-3" value="TAQSIM" style="rounded=0;whiteSpace=wrap;html=1;" parent="1" vertex="1">
          <mxGeometry x="360" y="40" width="120" height="60" as="geometry" />
        </mxCell>
        <mxCell id="K5hyXtgFJHPS_Cu2W4zV-4" value="TAVAR SOTUVCH" style="text;html=1;strokeColor=none;fillColor=none;align=center;verticalAlign=middle;whiteSpace=wrap;rounded=0;" parent="1" vertex="1">
          <mxGeometry x="60" y="10" width="60" height="30" as="geometry" />
        </mxCell>
        <mxCell id="K5hyXtgFJHPS_Cu2W4zV-6" value="TAVAR&amp;nbsp; OLUVCH" style="text;html=1;strokeColor=none;fillColor=none;align=center;verticalAlign=middle;whiteSpace=wrap;rounded=0;" parent="1" vertex="1">
          <mxGeometry x="710" y="10" width="60" height="30" as="geometry" />
        </mxCell>
        <mxCell id="K5hyXtgFJHPS_Cu2W4zV-7" value="CANTROL QILUVCH" style="text;html=1;strokeColor=none;fillColor=none;align=center;verticalAlign=middle;whiteSpace=wrap;rounded=0;" parent="1" vertex="1">
          <mxGeometry x="390" y="10" width="60" height="30" as="geometry" />
        </mxCell>
        <mxCell id="K5hyXtgFJHPS_Cu2W4zV-12" style="edgeStyle=orthogonalEdgeStyle;rounded=0;orthogonalLoop=1;jettySize=auto;html=1;entryX=0;entryY=0.5;entryDx=0;entryDy=0;" parent="1" source="K5hyXtgFJHPS_Cu2W4zV-8" target="K5hyXtgFJHPS_Cu2W4zV-11" edge="1">
          <mxGeometry relative="1" as="geometry" />
        </mxCell>
        <mxCell id="K5hyXtgFJHPS_Cu2W4zV-8" value="TAVAR" style="rounded=0;whiteSpace=wrap;html=1;" parent="1" vertex="1">
          <mxGeometry x="40" y="180" width="120" height="60" as="geometry" />
        </mxCell>
        <mxCell id="K5hyXtgFJHPS_Cu2W4zV-13" style="edgeStyle=orthogonalEdgeStyle;rounded=0;orthogonalLoop=1;jettySize=auto;html=1;entryX=0.5;entryY=1;entryDx=0;entryDy=0;" parent="1" source="K5hyXtgFJHPS_Cu2W4zV-11" target="K5hyXtgFJHPS_Cu2W4zV-3" edge="1">
          <mxGeometry relative="1" as="geometry" />
        </mxCell>
        <mxCell id="K5hyXtgFJHPS_Cu2W4zV-11" value="KARZINA" style="rounded=0;whiteSpace=wrap;html=1;" parent="1" vertex="1">
          <mxGeometry x="270" y="180" width="120" height="60" as="geometry" />
        </mxCell>
        <mxCell id="K5hyXtgFJHPS_Cu2W4zV-17" value="" style="edgeStyle=orthogonalEdgeStyle;rounded=0;orthogonalLoop=1;jettySize=auto;html=1;" parent="1" source="K5hyXtgFJHPS_Cu2W4zV-14" target="K5hyXtgFJHPS_Cu2W4zV-15" edge="1">
          <mxGeometry relative="1" as="geometry" />
        </mxCell>
        <mxCell id="K5hyXtgFJHPS_Cu2W4zV-14" value="REGISTRATSIYA" style="rounded=0;whiteSpace=wrap;html=1;" parent="1" vertex="1">
          <mxGeometry x="680" y="120" width="120" height="60" as="geometry" />
        </mxCell>
        <mxCell id="K5hyXtgFJHPS_Cu2W4zV-19" value="" style="edgeStyle=orthogonalEdgeStyle;rounded=0;orthogonalLoop=1;jettySize=auto;html=1;" parent="1" source="K5hyXtgFJHPS_Cu2W4zV-15" target="K5hyXtgFJHPS_Cu2W4zV-18" edge="1">
          <mxGeometry relative="1" as="geometry" />
        </mxCell>
        <mxCell id="K5hyXtgFJHPS_Cu2W4zV-15" value="CANTROL" style="rounded=0;whiteSpace=wrap;html=1;" parent="1" vertex="1">
          <mxGeometry x="680" y="200" width="120" height="60" as="geometry" />
        </mxCell>
        <mxCell id="K5hyXtgFJHPS_Cu2W4zV-27" style="edgeStyle=orthogonalEdgeStyle;rounded=0;orthogonalLoop=1;jettySize=auto;html=1;entryX=0.5;entryY=0;entryDx=0;entryDy=0;" parent="1" source="K5hyXtgFJHPS_Cu2W4zV-18" target="K5hyXtgFJHPS_Cu2W4zV-25" edge="1">
          <mxGeometry relative="1" as="geometry" />
        </mxCell>
        <mxCell id="K5hyXtgFJHPS_Cu2W4zV-18" value="TAVAR TANLASH" style="rounded=0;whiteSpace=wrap;html=1;" parent="1" vertex="1">
          <mxGeometry x="680" y="280" width="120" height="60" as="geometry" />
        </mxCell>
        <mxCell id="K5hyXtgFJHPS_Cu2W4zV-30" style="edgeStyle=orthogonalEdgeStyle;rounded=0;orthogonalLoop=1;jettySize=auto;html=1;" parent="1" source="K5hyXtgFJHPS_Cu2W4zV-25" edge="1">
          <mxGeometry relative="1" as="geometry">
            <mxPoint x="480" y="70" as="targetPoint" />
            <Array as="points">
              <mxPoint x="590" y="430" />
              <mxPoint x="590" y="70" />
            </Array>
          </mxGeometry>
        </mxCell>
        <mxCell id="K5hyXtgFJHPS_Cu2W4zV-25" value="KARZINA" style="rounded=0;whiteSpace=wrap;html=1;" parent="1" vertex="1">
          <mxGeometry x="680" y="400" width="120" height="60" as="geometry" />
        </mxCell>
        <mxCell id="K5hyXtgFJHPS_Cu2W4zV-44" style="edgeStyle=orthogonalEdgeStyle;rounded=0;orthogonalLoop=1;jettySize=auto;html=1;entryX=0;entryY=0.5;entryDx=0;entryDy=0;startArrow=none;exitX=1;exitY=0.5;exitDx=0;exitDy=0;" parent="1" source="K5hyXtgFJHPS_Cu2W4zV-45" target="K5hyXtgFJHPS_Cu2W4zV-42" edge="1">
          <mxGeometry relative="1" as="geometry">
            <Array as="points">
              <mxPoint x="730" y="536" />
            </Array>
          </mxGeometry>
        </mxCell>
        <mxCell id="K5hyXtgFJHPS_Cu2W4zV-28" value="RASROCHKA" style="rounded=0;whiteSpace=wrap;html=1;" parent="1" vertex="1">
          <mxGeometry x="410" y="250" width="120" height="60" as="geometry" />
        </mxCell>
        <mxCell id="K5hyXtgFJHPS_Cu2W4zV-32" value="TELEFON BER" style="text;html=1;strokeColor=none;fillColor=none;align=center;verticalAlign=middle;whiteSpace=wrap;rounded=0;rotation=90;" parent="1" vertex="1">
          <mxGeometry x="580" y="200" width="60" height="30" as="geometry" />
        </mxCell>
        <mxCell id="K5hyXtgFJHPS_Cu2W4zV-33" value="TELEFON BER" style="text;html=1;strokeColor=none;fillColor=none;align=center;verticalAlign=middle;whiteSpace=wrap;rounded=0;" parent="1" vertex="1">
          <mxGeometry x="230" y="40" width="60" height="30" as="geometry" />
        </mxCell>
        <mxCell id="K5hyXtgFJHPS_Cu2W4zV-35" value="TELEFON BERVOR" style="text;html=1;strokeColor=none;fillColor=none;align=center;verticalAlign=middle;whiteSpace=wrap;rounded=0;rotation=90;" parent="1" vertex="1">
          <mxGeometry x="90" y="120" width="60" height="30" as="geometry" />
        </mxCell>
        <mxCell id="K5hyXtgFJHPS_Cu2W4zV-36" value="TELEFON BERDM" style="text;html=1;strokeColor=none;fillColor=none;align=center;verticalAlign=middle;whiteSpace=wrap;rounded=0;" parent="1" vertex="1">
          <mxGeometry x="180" y="180" width="60" height="30" as="geometry" />
        </mxCell>
        <mxCell id="K5hyXtgFJHPS_Cu2W4zV-37" value="TELEFON SKLADDA" style="text;html=1;strokeColor=none;fillColor=none;align=center;verticalAlign=middle;whiteSpace=wrap;rounded=0;" parent="1" vertex="1">
          <mxGeometry x="330" y="110" width="60" height="30" as="geometry" />
        </mxCell>
        <mxCell id="K5hyXtgFJHPS_Cu2W4zV-38" value="TELEFON BERDM" style="text;html=1;strokeColor=none;fillColor=none;align=center;verticalAlign=middle;whiteSpace=wrap;rounded=0;rotation=90;" parent="1" vertex="1">
          <mxGeometry x="460" y="140" width="60" height="30" as="geometry" />
        </mxCell>
        <mxCell id="K5hyXtgFJHPS_Cu2W4zV-40" value="" style="ellipse;whiteSpace=wrap;html=1;aspect=fixed;" parent="1" vertex="1">
          <mxGeometry x="729.25" y="496" width="80" height="80" as="geometry" />
        </mxCell>
        <mxCell id="K5hyXtgFJHPS_Cu2W4zV-42" value="CLENT" style="text;html=1;strokeColor=none;fillColor=none;align=center;verticalAlign=middle;whiteSpace=wrap;rounded=0;" parent="1" vertex="1">
          <mxGeometry x="730" y="521" width="60" height="30" as="geometry" />
        </mxCell>
        <mxCell id="K5hyXtgFJHPS_Cu2W4zV-45" value="DASTAFKA" style="text;html=1;strokeColor=none;fillColor=none;align=center;verticalAlign=middle;whiteSpace=wrap;rounded=0;" parent="1" vertex="1">
          <mxGeometry x="500" y="521" width="60" height="30" as="geometry" />
        </mxCell>
        <mxCell id="K5hyXtgFJHPS_Cu2W4zV-46" value="" style="edgeStyle=orthogonalEdgeStyle;rounded=0;orthogonalLoop=1;jettySize=auto;html=1;entryX=0;entryY=0.5;entryDx=0;entryDy=0;endArrow=none;" parent="1" source="K5hyXtgFJHPS_Cu2W4zV-28" target="K5hyXtgFJHPS_Cu2W4zV-45" edge="1">
          <mxGeometry relative="1" as="geometry">
            <mxPoint x="470" y="310" as="sourcePoint" />
            <mxPoint x="730" y="545" as="targetPoint" />
            <Array as="points" />
          </mxGeometry>
        </mxCell>
        <mxCell id="K5hyXtgFJHPS_Cu2W4zV-47" value="" style="image;html=1;image=img/lib/clip_art/people/Suit_Man_128x128.png" parent="1" vertex="1">
          <mxGeometry x="450" y="10" width="40" height="30" as="geometry" />
        </mxCell>
        <mxCell id="K5hyXtgFJHPS_Cu2W4zV-50" value="" style="image;html=1;image=img/lib/clip_art/people/Worker_Man_128x128.png" parent="1" vertex="1">
          <mxGeometry x="770" y="10" width="39.25" height="30" as="geometry" />
        </mxCell>
        <mxCell id="K5hyXtgFJHPS_Cu2W4zV-51" value="" style="image;html=1;image=img/lib/clip_art/people/Worker_Man_128x128.png" parent="1" vertex="1">
          <mxGeometry x="770" y="521" width="39.25" height="30" as="geometry" />
        </mxCell>
        <mxCell id="K5hyXtgFJHPS_Cu2W4zV-53" value="" style="endArrow=none;html=1;rounded=0;" parent="1" edge="1">
          <mxGeometry width="50" height="50" relative="1" as="geometry">
            <mxPoint x="40" y="600" as="sourcePoint" />
            <mxPoint x="800" y="600" as="targetPoint" />
          </mxGeometry>
        </mxCell>
        <mxCell id="K5hyXtgFJHPS_Cu2W4zV-70" value="" style="endArrow=none;html=1;rounded=0;" parent="1" edge="1">
          <mxGeometry width="50" height="50" relative="1" as="geometry">
            <mxPoint x="40" y="760" as="sourcePoint" />
            <mxPoint x="800" y="760" as="targetPoint" />
          </mxGeometry>
        </mxCell>
        <mxCell id="K5hyXtgFJHPS_Cu2W4zV-75" value="" style="edgeStyle=orthogonalEdgeStyle;rounded=0;orthogonalLoop=1;jettySize=auto;html=1;" parent="1" source="K5hyXtgFJHPS_Cu2W4zV-71" target="K5hyXtgFJHPS_Cu2W4zV-74" edge="1">
          <mxGeometry relative="1" as="geometry" />
        </mxCell>
        <mxCell id="K5hyXtgFJHPS_Cu2W4zV-71" value="MERJNT CABINET" style="rounded=0;whiteSpace=wrap;html=1;" parent="1" vertex="1">
          <mxGeometry x="40" y="670" width="120" height="60" as="geometry" />
        </mxCell>
        <mxCell id="K5hyXtgFJHPS_Cu2W4zV-72" value="TAVAR SOTUVCH" style="text;html=1;strokeColor=none;fillColor=none;align=center;verticalAlign=middle;whiteSpace=wrap;rounded=0;" parent="1" vertex="1">
          <mxGeometry x="60" y="640" width="60" height="30" as="geometry" />
        </mxCell>
        <mxCell id="K5hyXtgFJHPS_Cu2W4zV-79" style="edgeStyle=orthogonalEdgeStyle;rounded=0;orthogonalLoop=1;jettySize=auto;html=1;entryX=0;entryY=0.5;entryDx=0;entryDy=0;" parent="1" source="K5hyXtgFJHPS_Cu2W4zV-74" target="K5hyXtgFJHPS_Cu2W4zV-76" edge="1">
          <mxGeometry relative="1" as="geometry" />
        </mxCell>
        <mxCell id="K5hyXtgFJHPS_Cu2W4zV-74" value="TAVARNI NAXTGA SOTISH" style="rounded=0;whiteSpace=wrap;html=1;" parent="1" vertex="1">
          <mxGeometry x="240" y="670" width="120" height="60" as="geometry" />
        </mxCell>
        <mxCell id="K5hyXtgFJHPS_Cu2W4zV-76" value="TAQSIM" style="rounded=0;whiteSpace=wrap;html=1;" parent="1" vertex="1">
          <mxGeometry x="640" y="670" width="120" height="60" as="geometry" />
        </mxCell>
        <mxCell id="K5hyXtgFJHPS_Cu2W4zV-77" value="CANTROL QILUVCH" style="text;html=1;strokeColor=none;fillColor=none;align=center;verticalAlign=middle;whiteSpace=wrap;rounded=0;" parent="1" vertex="1">
          <mxGeometry x="670" y="640" width="60" height="30" as="geometry" />
        </mxCell>
        <mxCell id="K5hyXtgFJHPS_Cu2W4zV-78" value="" style="image;html=1;image=img/lib/clip_art/people/Suit_Man_128x128.png" parent="1" vertex="1">
          <mxGeometry x="730" y="640" width="40" height="30" as="geometry" />
        </mxCell>
        <mxCell id="K5hyXtgFJHPS_Cu2W4zV-82" value="" style="endArrow=none;html=1;rounded=0;" parent="1" edge="1">
          <mxGeometry width="50" height="50" relative="1" as="geometry">
            <mxPoint x="40" y="960" as="sourcePoint" />
            <mxPoint x="800" y="960" as="targetPoint" />
          </mxGeometry>
        </mxCell>
        <mxCell id="K5hyXtgFJHPS_Cu2W4zV-87" value="" style="edgeStyle=orthogonalEdgeStyle;rounded=0;orthogonalLoop=1;jettySize=auto;html=1;" parent="1" source="K5hyXtgFJHPS_Cu2W4zV-83" target="K5hyXtgFJHPS_Cu2W4zV-86" edge="1">
          <mxGeometry relative="1" as="geometry" />
        </mxCell>
        <mxCell id="K5hyXtgFJHPS_Cu2W4zV-83" value="CLENT CABINET" style="rounded=0;whiteSpace=wrap;html=1;" parent="1" vertex="1">
          <mxGeometry x="35.379999999999995" y="1030" width="120" height="60" as="geometry" />
        </mxCell>
        <mxCell id="K5hyXtgFJHPS_Cu2W4zV-84" value="TAVAR&amp;nbsp; OLUVCH" style="text;html=1;strokeColor=none;fillColor=none;align=center;verticalAlign=middle;whiteSpace=wrap;rounded=0;" parent="1" vertex="1">
          <mxGeometry x="65.38" y="1000" width="60" height="30" as="geometry" />
        </mxCell>
        <mxCell id="K5hyXtgFJHPS_Cu2W4zV-85" value="" style="image;html=1;image=img/lib/clip_art/people/Worker_Man_128x128.png" parent="1" vertex="1">
          <mxGeometry x="125.38" y="1000" width="39.25" height="30" as="geometry" />
        </mxCell>
        <mxCell id="K5hyXtgFJHPS_Cu2W4zV-94" value="" style="edgeStyle=orthogonalEdgeStyle;rounded=0;orthogonalLoop=1;jettySize=auto;html=1;" parent="1" source="K5hyXtgFJHPS_Cu2W4zV-86" target="K5hyXtgFJHPS_Cu2W4zV-93" edge="1">
          <mxGeometry relative="1" as="geometry" />
        </mxCell>
        <mxCell id="K5hyXtgFJHPS_Cu2W4zV-101" value="" style="edgeStyle=orthogonalEdgeStyle;rounded=0;orthogonalLoop=1;jettySize=auto;html=1;" parent="1" source="K5hyXtgFJHPS_Cu2W4zV-86" target="K5hyXtgFJHPS_Cu2W4zV-100" edge="1">
          <mxGeometry relative="1" as="geometry" />
        </mxCell>
        <mxCell id="K5hyXtgFJHPS_Cu2W4zV-86" value="REGISTRATSIYA" style="whiteSpace=wrap;html=1;rounded=0;" parent="1" vertex="1">
          <mxGeometry x="35" y="1120" width="120" height="60" as="geometry" />
        </mxCell>
        <mxCell id="K5hyXtgFJHPS_Cu2W4zV-97" style="edgeStyle=orthogonalEdgeStyle;rounded=0;orthogonalLoop=1;jettySize=auto;html=1;entryX=0;entryY=0.5;entryDx=0;entryDy=0;" parent="1" source="K5hyXtgFJHPS_Cu2W4zV-93" target="K5hyXtgFJHPS_Cu2W4zV-95" edge="1">
          <mxGeometry relative="1" as="geometry" />
        </mxCell>
        <mxCell id="K5hyXtgFJHPS_Cu2W4zV-115" value="" style="edgeStyle=orthogonalEdgeStyle;rounded=0;orthogonalLoop=1;jettySize=auto;html=1;" parent="1" source="K5hyXtgFJHPS_Cu2W4zV-93" target="K5hyXtgFJHPS_Cu2W4zV-114" edge="1">
          <mxGeometry relative="1" as="geometry" />
        </mxCell>
        <mxCell id="K5hyXtgFJHPS_Cu2W4zV-93" value="CANTROL" style="whiteSpace=wrap;html=1;rounded=0;" parent="1" vertex="1">
          <mxGeometry x="250" y="1120" width="120" height="60" as="geometry" />
        </mxCell>
        <mxCell id="K5hyXtgFJHPS_Cu2W4zV-98" style="edgeStyle=orthogonalEdgeStyle;rounded=0;orthogonalLoop=1;jettySize=auto;html=1;entryX=0;entryY=0.5;entryDx=0;entryDy=0;" parent="1" source="K5hyXtgFJHPS_Cu2W4zV-95" target="K5hyXtgFJHPS_Cu2W4zV-96" edge="1">
          <mxGeometry relative="1" as="geometry" />
        </mxCell>
        <mxCell id="K5hyXtgFJHPS_Cu2W4zV-123" value="" style="edgeStyle=orthogonalEdgeStyle;rounded=0;orthogonalLoop=1;jettySize=auto;html=1;" parent="1" source="K5hyXtgFJHPS_Cu2W4zV-95" target="K5hyXtgFJHPS_Cu2W4zV-122" edge="1">
          <mxGeometry relative="1" as="geometry" />
        </mxCell>
        <mxCell id="K5hyXtgFJHPS_Cu2W4zV-95" value="TAVAR TANLASH" style="rounded=0;whiteSpace=wrap;html=1;" parent="1" vertex="1">
          <mxGeometry x="470" y="1120" width="120" height="60" as="geometry" />
        </mxCell>
        <mxCell id="K5hyXtgFJHPS_Cu2W4zV-131" value="" style="edgeStyle=orthogonalEdgeStyle;rounded=0;orthogonalLoop=1;jettySize=auto;html=1;" parent="1" source="K5hyXtgFJHPS_Cu2W4zV-96" target="K5hyXtgFJHPS_Cu2W4zV-130" edge="1">
          <mxGeometry relative="1" as="geometry" />
        </mxCell>
        <mxCell id="K5hyXtgFJHPS_Cu2W4zV-96" value="KARZINA" style="rounded=0;whiteSpace=wrap;html=1;" parent="1" vertex="1">
          <mxGeometry x="680.75" y="1120" width="120" height="60" as="geometry" />
        </mxCell>
        <mxCell id="K5hyXtgFJHPS_Cu2W4zV-103" value="" style="edgeStyle=orthogonalEdgeStyle;rounded=0;orthogonalLoop=1;jettySize=auto;html=1;" parent="1" source="K5hyXtgFJHPS_Cu2W4zV-100" target="K5hyXtgFJHPS_Cu2W4zV-102" edge="1">
          <mxGeometry relative="1" as="geometry" />
        </mxCell>
        <mxCell id="K5hyXtgFJHPS_Cu2W4zV-100" value="ISIM" style="whiteSpace=wrap;html=1;rounded=0;" parent="1" vertex="1">
          <mxGeometry x="35" y="1200" width="120" height="60" as="geometry" />
        </mxCell>
        <mxCell id="K5hyXtgFJHPS_Cu2W4zV-105" value="" style="edgeStyle=orthogonalEdgeStyle;rounded=0;orthogonalLoop=1;jettySize=auto;html=1;" parent="1" source="K5hyXtgFJHPS_Cu2W4zV-102" target="K5hyXtgFJHPS_Cu2W4zV-104" edge="1">
          <mxGeometry relative="1" as="geometry" />
        </mxCell>
        <mxCell id="K5hyXtgFJHPS_Cu2W4zV-102" value="FAMILIYA" style="whiteSpace=wrap;html=1;rounded=0;" parent="1" vertex="1">
          <mxGeometry x="34.99999999999999" y="1280" width="120" height="60" as="geometry" />
        </mxCell>
        <mxCell id="K5hyXtgFJHPS_Cu2W4zV-111" value="" style="edgeStyle=orthogonalEdgeStyle;rounded=0;orthogonalLoop=1;jettySize=auto;html=1;" parent="1" source="K5hyXtgFJHPS_Cu2W4zV-104" target="K5hyXtgFJHPS_Cu2W4zV-110" edge="1">
          <mxGeometry relative="1" as="geometry" />
        </mxCell>
        <mxCell id="K5hyXtgFJHPS_Cu2W4zV-104" value="O&#39;CHESTVA" style="whiteSpace=wrap;html=1;rounded=0;" parent="1" vertex="1">
          <mxGeometry x="35" y="1360" width="120" height="60" as="geometry" />
        </mxCell>
        <mxCell id="K5hyXtgFJHPS_Cu2W4zV-109" value="" style="edgeStyle=orthogonalEdgeStyle;rounded=0;orthogonalLoop=1;jettySize=auto;html=1;" parent="1" source="K5hyXtgFJHPS_Cu2W4zV-106" target="K5hyXtgFJHPS_Cu2W4zV-108" edge="1">
          <mxGeometry relative="1" as="geometry" />
        </mxCell>
        <mxCell id="K5hyXtgFJHPS_Cu2W4zV-106" value="PASPRT" style="whiteSpace=wrap;html=1;rounded=0;" parent="1" vertex="1">
          <mxGeometry x="35" y="1520" width="120" height="60" as="geometry" />
        </mxCell>
        <mxCell id="K5hyXtgFJHPS_Cu2W4zV-108" value="PASTIK CARTA" style="whiteSpace=wrap;html=1;rounded=0;" parent="1" vertex="1">
          <mxGeometry x="35" y="1600" width="120" height="60" as="geometry" />
        </mxCell>
        <mxCell id="K5hyXtgFJHPS_Cu2W4zV-113" style="edgeStyle=orthogonalEdgeStyle;rounded=0;orthogonalLoop=1;jettySize=auto;html=1;entryX=0.5;entryY=0;entryDx=0;entryDy=0;" parent="1" source="K5hyXtgFJHPS_Cu2W4zV-110" target="K5hyXtgFJHPS_Cu2W4zV-106" edge="1">
          <mxGeometry relative="1" as="geometry" />
        </mxCell>
        <mxCell id="K5hyXtgFJHPS_Cu2W4zV-110" value="TELEFON NOMER" style="whiteSpace=wrap;html=1;rounded=0;" parent="1" vertex="1">
          <mxGeometry x="35" y="1440" width="120" height="60" as="geometry" />
        </mxCell>
        <mxCell id="K5hyXtgFJHPS_Cu2W4zV-117" value="" style="edgeStyle=orthogonalEdgeStyle;rounded=0;orthogonalLoop=1;jettySize=auto;html=1;" parent="1" source="K5hyXtgFJHPS_Cu2W4zV-114" target="K5hyXtgFJHPS_Cu2W4zV-116" edge="1">
          <mxGeometry relative="1" as="geometry" />
        </mxCell>
        <mxCell id="K5hyXtgFJHPS_Cu2W4zV-114" value="ISHLASH JOY" style="whiteSpace=wrap;html=1;rounded=0;" parent="1" vertex="1">
          <mxGeometry x="250" y="1200" width="120" height="60" as="geometry" />
        </mxCell>
        <mxCell id="K5hyXtgFJHPS_Cu2W4zV-119" value="" style="edgeStyle=orthogonalEdgeStyle;rounded=0;orthogonalLoop=1;jettySize=auto;html=1;" parent="1" source="K5hyXtgFJHPS_Cu2W4zV-116" target="K5hyXtgFJHPS_Cu2W4zV-118" edge="1">
          <mxGeometry relative="1" as="geometry" />
        </mxCell>
        <mxCell id="K5hyXtgFJHPS_Cu2W4zV-116" value="ISH OYLIGI QANCHALIG" style="whiteSpace=wrap;html=1;rounded=0;" parent="1" vertex="1">
          <mxGeometry x="250" y="1280" width="120" height="60" as="geometry" />
        </mxCell>
        <mxCell id="K5hyXtgFJHPS_Cu2W4zV-121" value="" style="edgeStyle=orthogonalEdgeStyle;rounded=0;orthogonalLoop=1;jettySize=auto;html=1;" parent="1" source="K5hyXtgFJHPS_Cu2W4zV-118" target="K5hyXtgFJHPS_Cu2W4zV-120" edge="1">
          <mxGeometry relative="1" as="geometry" />
        </mxCell>
        <mxCell id="K5hyXtgFJHPS_Cu2W4zV-118" value="OLINGAN KREDITLAR" style="whiteSpace=wrap;html=1;rounded=0;" parent="1" vertex="1">
          <mxGeometry x="250" y="1360" width="120" height="60" as="geometry" />
        </mxCell>
        <mxCell id="K5hyXtgFJHPS_Cu2W4zV-120" value="DAVLAT SOLIQLAR" style="whiteSpace=wrap;html=1;rounded=0;" parent="1" vertex="1">
          <mxGeometry x="250" y="1440" width="120" height="60" as="geometry" />
        </mxCell>
        <mxCell id="K5hyXtgFJHPS_Cu2W4zV-125" value="" style="edgeStyle=orthogonalEdgeStyle;rounded=0;orthogonalLoop=1;jettySize=auto;html=1;" parent="1" source="K5hyXtgFJHPS_Cu2W4zV-122" target="K5hyXtgFJHPS_Cu2W4zV-124" edge="1">
          <mxGeometry relative="1" as="geometry" />
        </mxCell>
        <mxCell id="K5hyXtgFJHPS_Cu2W4zV-122" value="BITAVIY TEXNIKA" style="whiteSpace=wrap;html=1;rounded=0;" parent="1" vertex="1">
          <mxGeometry x="470" y="1200" width="120" height="60" as="geometry" />
        </mxCell>
        <mxCell id="K5hyXtgFJHPS_Cu2W4zV-127" value="" style="edgeStyle=orthogonalEdgeStyle;rounded=0;orthogonalLoop=1;jettySize=auto;html=1;" parent="1" source="K5hyXtgFJHPS_Cu2W4zV-124" target="K5hyXtgFJHPS_Cu2W4zV-126" edge="1">
          <mxGeometry relative="1" as="geometry" />
        </mxCell>
        <mxCell id="K5hyXtgFJHPS_Cu2W4zV-124" value="KIYIM KECHAK" style="whiteSpace=wrap;html=1;rounded=0;" parent="1" vertex="1">
          <mxGeometry x="470" y="1280" width="120" height="60" as="geometry" />
        </mxCell>
        <mxCell id="K5hyXtgFJHPS_Cu2W4zV-129" value="" style="edgeStyle=orthogonalEdgeStyle;rounded=0;orthogonalLoop=1;jettySize=auto;html=1;" parent="1" source="K5hyXtgFJHPS_Cu2W4zV-126" target="K5hyXtgFJHPS_Cu2W4zV-128" edge="1">
          <mxGeometry relative="1" as="geometry" />
        </mxCell>
        <mxCell id="K5hyXtgFJHPS_Cu2W4zV-126" value="AFTOMABIL" style="whiteSpace=wrap;html=1;rounded=0;" parent="1" vertex="1">
          <mxGeometry x="470" y="1360" width="120" height="60" as="geometry" />
        </mxCell>
        <mxCell id="K5hyXtgFJHPS_Cu2W4zV-128" value="UY JOY" style="whiteSpace=wrap;html=1;rounded=0;" parent="1" vertex="1">
          <mxGeometry x="470" y="1440" width="120" height="60" as="geometry" />
        </mxCell>
        <mxCell id="K5hyXtgFJHPS_Cu2W4zV-130" value="JAMI OLINGAN TAVARLAR" style="whiteSpace=wrap;html=1;rounded=0;" parent="1" vertex="1">
          <mxGeometry x="680" y="1200" width="120" height="60" as="geometry" />
        </mxCell>
        <mxCell id="K5hyXtgFJHPS_Cu2W4zV-132" value="" style="endArrow=none;html=1;rounded=0;" parent="1" edge="1">
          <mxGeometry width="50" height="50" relative="1" as="geometry">
            <mxPoint x="40" y="1720" as="sourcePoint" />
            <mxPoint x="800" y="1720" as="targetPoint" />
          </mxGeometry>
        </mxCell>
        <mxCell id="K5hyXtgFJHPS_Cu2W4zV-133" style="edgeStyle=orthogonalEdgeStyle;rounded=0;orthogonalLoop=1;jettySize=auto;html=1;entryX=0;entryY=0.5;entryDx=0;entryDy=0;startArrow=none;" parent="1" source="K5hyXtgFJHPS_Cu2W4zV-139" target="K5hyXtgFJHPS_Cu2W4zV-137" edge="1">
          <mxGeometry relative="1" as="geometry" />
        </mxCell>
        <mxCell id="K5hyXtgFJHPS_Cu2W4zV-134" style="edgeStyle=orthogonalEdgeStyle;rounded=0;orthogonalLoop=1;jettySize=auto;html=1;entryX=0;entryY=0.5;entryDx=0;entryDy=0;" parent="1" source="K5hyXtgFJHPS_Cu2W4zV-135" target="K5hyXtgFJHPS_Cu2W4zV-139" edge="1">
          <mxGeometry relative="1" as="geometry" />
        </mxCell>
        <mxCell id="K5hyXtgFJHPS_Cu2W4zV-135" value="RASROCHKA" style="rounded=0;whiteSpace=wrap;html=1;" parent="1" vertex="1">
          <mxGeometry x="220" y="830" width="120" height="60" as="geometry" />
        </mxCell>
        <mxCell id="K5hyXtgFJHPS_Cu2W4zV-136" value="" style="edgeStyle=orthogonalEdgeStyle;rounded=0;orthogonalLoop=1;jettySize=auto;html=1;" parent="1" source="K5hyXtgFJHPS_Cu2W4zV-137" edge="1">
          <mxGeometry relative="1" as="geometry">
            <mxPoint x="680" y="860" as="targetPoint" />
          </mxGeometry>
        </mxCell>
        <mxCell id="K5hyXtgFJHPS_Cu2W4zV-137" value="OYGA-YILGA - BOLIB BERRISH" style="rounded=0;whiteSpace=wrap;html=1;" parent="1" vertex="1">
          <mxGeometry x="530" y="830" width="120" height="60" as="geometry" />
        </mxCell>
        <mxCell id="K5hyXtgFJHPS_Cu2W4zV-138" style="edgeStyle=orthogonalEdgeStyle;rounded=0;orthogonalLoop=1;jettySize=auto;html=1;exitX=0.5;exitY=1;exitDx=0;exitDy=0;" parent="1" source="K5hyXtgFJHPS_Cu2W4zV-139" target="K5hyXtgFJHPS_Cu2W4zV-139" edge="1">
          <mxGeometry relative="1" as="geometry" />
        </mxCell>
        <mxCell id="K5hyXtgFJHPS_Cu2W4zV-139" value="TAVARUSTIGA NARX QOYISH" style="rounded=0;whiteSpace=wrap;html=1;" parent="1" vertex="1">
          <mxGeometry x="370" y="830" width="120" height="60" as="geometry" />
        </mxCell>
        <mxCell id="K5hyXtgFJHPS_Cu2W4zV-140" value="" style="ellipse;whiteSpace=wrap;html=1;aspect=fixed;" parent="1" vertex="1">
          <mxGeometry x="680" y="820" width="80" height="80" as="geometry" />
        </mxCell>
        <mxCell id="K5hyXtgFJHPS_Cu2W4zV-141" value="CLENT" style="text;html=1;strokeColor=none;fillColor=none;align=center;verticalAlign=middle;whiteSpace=wrap;rounded=0;" parent="1" vertex="1">
          <mxGeometry x="680.75" y="845" width="60" height="30" as="geometry" />
        </mxCell>
        <mxCell id="K5hyXtgFJHPS_Cu2W4zV-142" value="" style="image;html=1;image=img/lib/clip_art/people/Worker_Man_128x128.png" parent="1" vertex="1">
          <mxGeometry x="720.75" y="845" width="39.25" height="30" as="geometry" />
        </mxCell>
        <mxCell id="K5hyXtgFJHPS_Cu2W4zV-143" style="edgeStyle=orthogonalEdgeStyle;rounded=0;orthogonalLoop=1;jettySize=auto;html=1;entryX=0;entryY=0.5;entryDx=0;entryDy=0;" parent="1" source="K5hyXtgFJHPS_Cu2W4zV-144" target="K5hyXtgFJHPS_Cu2W4zV-135" edge="1">
          <mxGeometry relative="1" as="geometry" />
        </mxCell>
        <mxCell id="K5hyXtgFJHPS_Cu2W4zV-144" value="TAQSIM" style="rounded=0;whiteSpace=wrap;html=1;" parent="1" vertex="1">
          <mxGeometry x="40" y="830" width="120" height="60" as="geometry" />
        </mxCell>
        <mxCell id="K5hyXtgFJHPS_Cu2W4zV-145" value="CANTROL QILUVCH" style="text;html=1;strokeColor=none;fillColor=none;align=center;verticalAlign=middle;whiteSpace=wrap;rounded=0;" parent="1" vertex="1">
          <mxGeometry x="70" y="800" width="60" height="30" as="geometry" />
        </mxCell>
        <mxCell id="K5hyXtgFJHPS_Cu2W4zV-146" value="" style="image;html=1;image=img/lib/clip_art/people/Suit_Man_128x128.png" parent="1" vertex="1">
          <mxGeometry x="130" y="800" width="40" height="30" as="geometry" />
        </mxCell>
        <mxCell id="v3aD2jTHtYaD7lwOFh9s-1" value="" style="image;html=1;image=img/lib/clip_art/people/Tech_Man_128x128.png" parent="1" vertex="1">
          <mxGeometry x="124.63" y="10" width="40" height="30" as="geometry" />
        </mxCell>
        <mxCell id="v3aD2jTHtYaD7lwOFh9s-2" value="" style="image;html=1;image=img/lib/clip_art/people/Tech_Man_128x128.png" parent="1" vertex="1">
          <mxGeometry x="120" y="640" width="40" height="30" as="geometry" />
        </mxCell>
        <mxCell id="cq9fGqPeD2-OZJ-PsZSs-1" value="&lt;font style=&quot;font-size: 14px;&quot;&gt;&amp;nbsp;I&lt;br&gt;&amp;nbsp;You&lt;br&gt;&amp;nbsp;We&lt;br&gt;&amp;nbsp;They&lt;br&gt;&amp;nbsp;He&lt;br&gt;&amp;nbsp;She&lt;br&gt;&lt;/font&gt;" style="rounded=0;whiteSpace=wrap;html=1;align=left;fillColor=#dae8fc;strokeColor=#6c8ebf;" vertex="1" parent="1">
          <mxGeometry x="40" y="1880" width="160" height="120" as="geometry" />
        </mxCell>
        <mxCell id="cq9fGqPeD2-OZJ-PsZSs-2" value="&amp;nbsp;I&lt;br style=&quot;border-color: var(--border-color); font-size: 14px;&quot;&gt;&lt;span style=&quot;font-size: 14px;&quot;&gt;&amp;nbsp;You&lt;/span&gt;&lt;br style=&quot;border-color: var(--border-color); font-size: 14px;&quot;&gt;&lt;span style=&quot;font-size: 14px;&quot;&gt;&amp;nbsp;We&lt;/span&gt;&lt;br style=&quot;border-color: var(--border-color); font-size: 14px;&quot;&gt;&lt;span style=&quot;font-size: 14px;&quot;&gt;&amp;nbsp;They&lt;/span&gt;&lt;br style=&quot;border-color: var(--border-color); font-size: 14px;&quot;&gt;&lt;span style=&quot;font-size: 14px;&quot;&gt;&amp;nbsp;He&lt;/span&gt;&lt;br style=&quot;border-color: var(--border-color); font-size: 14px;&quot;&gt;&lt;span style=&quot;font-size: 14px;&quot;&gt;&amp;nbsp;She&lt;/span&gt;" style="rounded=0;whiteSpace=wrap;html=1;align=left;fillColor=#f5f5f5;fontColor=#333333;strokeColor=#666666;" vertex="1" parent="1">
          <mxGeometry x="40" y="2000" width="160" height="120" as="geometry" />
        </mxCell>
        <mxCell id="cq9fGqPeD2-OZJ-PsZSs-3" value="&amp;nbsp;I&lt;br style=&quot;border-color: var(--border-color); font-size: 14px;&quot;&gt;&lt;span style=&quot;border-color: var(--border-color); font-size: 14px;&quot;&gt;&amp;nbsp;You&lt;/span&gt;&lt;br style=&quot;border-color: var(--border-color); font-size: 14px;&quot;&gt;&lt;span style=&quot;border-color: var(--border-color); font-size: 14px;&quot;&gt;&amp;nbsp;We&lt;/span&gt;&lt;br style=&quot;border-color: var(--border-color); font-size: 14px;&quot;&gt;&lt;span style=&quot;border-color: var(--border-color); font-size: 14px;&quot;&gt;&amp;nbsp;They&lt;/span&gt;&lt;br style=&quot;border-color: var(--border-color); font-size: 14px;&quot;&gt;&lt;span style=&quot;border-color: var(--border-color); font-size: 14px;&quot;&gt;&amp;nbsp;He&lt;/span&gt;&lt;br style=&quot;border-color: var(--border-color); font-size: 14px;&quot;&gt;&lt;span style=&quot;border-color: var(--border-color); font-size: 14px;&quot;&gt;&amp;nbsp;She&lt;/span&gt;" style="rounded=0;whiteSpace=wrap;html=1;align=left;fillColor=#d5e8d4;strokeColor=#82b366;" vertex="1" parent="1">
          <mxGeometry x="40" y="2120" width="160" height="120" as="geometry" />
        </mxCell>
        <mxCell id="cq9fGqPeD2-OZJ-PsZSs-4" value="&lt;span style=&quot;color: rgb(0, 0, 0); font-family: Helvetica; font-size: 14px; font-style: normal; font-variant-ligatures: normal; font-variant-caps: normal; font-weight: 400; letter-spacing: normal; orphans: 2; text-indent: 0px; text-transform: none; widows: 2; word-spacing: 0px; -webkit-text-stroke-width: 0px; background-color: rgb(251, 251, 251); text-decoration-thickness: initial; text-decoration-style: initial; text-decoration-color: initial; float: none; display: inline !important;&quot;&gt;&amp;nbsp;I&lt;/span&gt;&lt;br style=&quot;border-color: var(--border-color); color: rgb(0, 0, 0); font-family: Helvetica; font-size: 14px; font-style: normal; font-variant-ligatures: normal; font-variant-caps: normal; font-weight: 400; letter-spacing: normal; orphans: 2; text-indent: 0px; text-transform: none; widows: 2; word-spacing: 0px; -webkit-text-stroke-width: 0px; background-color: rgb(251, 251, 251); text-decoration-thickness: initial; text-decoration-style: initial; text-decoration-color: initial;&quot;&gt;&lt;span style=&quot;color: rgb(0, 0, 0); font-family: Helvetica; font-size: 14px; font-style: normal; font-variant-ligatures: normal; font-variant-caps: normal; font-weight: 400; letter-spacing: normal; orphans: 2; text-indent: 0px; text-transform: none; widows: 2; word-spacing: 0px; -webkit-text-stroke-width: 0px; background-color: rgb(251, 251, 251); text-decoration-thickness: initial; text-decoration-style: initial; text-decoration-color: initial; float: none; display: inline !important;&quot;&gt;&amp;nbsp;You&lt;/span&gt;&lt;br style=&quot;border-color: var(--border-color); color: rgb(0, 0, 0); font-family: Helvetica; font-size: 14px; font-style: normal; font-variant-ligatures: normal; font-variant-caps: normal; font-weight: 400; letter-spacing: normal; orphans: 2; text-indent: 0px; text-transform: none; widows: 2; word-spacing: 0px; -webkit-text-stroke-width: 0px; background-color: rgb(251, 251, 251); text-decoration-thickness: initial; text-decoration-style: initial; text-decoration-color: initial;&quot;&gt;&lt;span style=&quot;color: rgb(0, 0, 0); font-family: Helvetica; font-size: 14px; font-style: normal; font-variant-ligatures: normal; font-variant-caps: normal; font-weight: 400; letter-spacing: normal; orphans: 2; text-indent: 0px; text-transform: none; widows: 2; word-spacing: 0px; -webkit-text-stroke-width: 0px; background-color: rgb(251, 251, 251); text-decoration-thickness: initial; text-decoration-style: initial; text-decoration-color: initial; float: none; display: inline !important;&quot;&gt;&amp;nbsp;We&lt;/span&gt;&lt;br style=&quot;border-color: var(--border-color); color: rgb(0, 0, 0); font-family: Helvetica; font-size: 14px; font-style: normal; font-variant-ligatures: normal; font-variant-caps: normal; font-weight: 400; letter-spacing: normal; orphans: 2; text-indent: 0px; text-transform: none; widows: 2; word-spacing: 0px; -webkit-text-stroke-width: 0px; background-color: rgb(251, 251, 251); text-decoration-thickness: initial; text-decoration-style: initial; text-decoration-color: initial;&quot;&gt;&lt;span style=&quot;color: rgb(0, 0, 0); font-family: Helvetica; font-size: 14px; font-style: normal; font-variant-ligatures: normal; font-variant-caps: normal; font-weight: 400; letter-spacing: normal; orphans: 2; text-indent: 0px; text-transform: none; widows: 2; word-spacing: 0px; -webkit-text-stroke-width: 0px; background-color: rgb(251, 251, 251); text-decoration-thickness: initial; text-decoration-style: initial; text-decoration-color: initial; float: none; display: inline !important;&quot;&gt;&amp;nbsp;They&lt;/span&gt;&lt;br style=&quot;border-color: var(--border-color); color: rgb(0, 0, 0); font-family: Helvetica; font-size: 14px; font-style: normal; font-variant-ligatures: normal; font-variant-caps: normal; font-weight: 400; letter-spacing: normal; orphans: 2; text-indent: 0px; text-transform: none; widows: 2; word-spacing: 0px; -webkit-text-stroke-width: 0px; background-color: rgb(251, 251, 251); text-decoration-thickness: initial; text-decoration-style: initial; text-decoration-color: initial;&quot;&gt;&lt;span style=&quot;color: rgb(0, 0, 0); font-family: Helvetica; font-size: 14px; font-style: normal; font-variant-ligatures: normal; font-variant-caps: normal; font-weight: 400; letter-spacing: normal; orphans: 2; text-indent: 0px; text-transform: none; widows: 2; word-spacing: 0px; -webkit-text-stroke-width: 0px; background-color: rgb(251, 251, 251); text-decoration-thickness: initial; text-decoration-style: initial; text-decoration-color: initial; float: none; display: inline !important;&quot;&gt;&amp;nbsp;He&lt;/span&gt;&lt;br style=&quot;border-color: var(--border-color); color: rgb(0, 0, 0); font-family: Helvetica; font-size: 14px; font-style: normal; font-variant-ligatures: normal; font-variant-caps: normal; font-weight: 400; letter-spacing: normal; orphans: 2; text-indent: 0px; text-transform: none; widows: 2; word-spacing: 0px; -webkit-text-stroke-width: 0px; background-color: rgb(251, 251, 251); text-decoration-thickness: initial; text-decoration-style: initial; text-decoration-color: initial;&quot;&gt;&lt;span style=&quot;color: rgb(0, 0, 0); font-family: Helvetica; font-size: 14px; font-style: normal; font-variant-ligatures: normal; font-variant-caps: normal; font-weight: 400; letter-spacing: normal; orphans: 2; text-indent: 0px; text-transform: none; widows: 2; word-spacing: 0px; -webkit-text-stroke-width: 0px; background-color: rgb(251, 251, 251); text-decoration-thickness: initial; text-decoration-style: initial; text-decoration-color: initial; float: none; display: inline !important;&quot;&gt;&amp;nbsp;She&lt;/span&gt;" style="rounded=0;whiteSpace=wrap;html=1;align=left;fillColor=#dae8fc;strokeColor=#6c8ebf;" vertex="1" parent="1">
          <mxGeometry x="200" y="1880" width="160" height="120" as="geometry" />
        </mxCell>
        <mxCell id="cq9fGqPeD2-OZJ-PsZSs-5" value="&amp;nbsp;I&lt;br style=&quot;border-color: var(--border-color); font-size: 14px;&quot;&gt;&lt;span style=&quot;border-color: var(--border-color); font-size: 14px;&quot;&gt;&amp;nbsp;You&lt;/span&gt;&lt;br style=&quot;border-color: var(--border-color); font-size: 14px;&quot;&gt;&lt;span style=&quot;border-color: var(--border-color); font-size: 14px;&quot;&gt;&amp;nbsp;We&lt;/span&gt;&lt;br style=&quot;border-color: var(--border-color); font-size: 14px;&quot;&gt;&lt;span style=&quot;border-color: var(--border-color); font-size: 14px;&quot;&gt;&amp;nbsp;They&lt;/span&gt;&lt;br style=&quot;border-color: var(--border-color); font-size: 14px;&quot;&gt;&lt;span style=&quot;border-color: var(--border-color); font-size: 14px;&quot;&gt;&amp;nbsp;He&lt;/span&gt;&lt;br style=&quot;border-color: var(--border-color); font-size: 14px;&quot;&gt;&lt;span style=&quot;border-color: var(--border-color); font-size: 14px;&quot;&gt;&amp;nbsp;She&lt;/span&gt;" style="rounded=0;whiteSpace=wrap;html=1;align=left;fillColor=#f8cecc;strokeColor=#b85450;" vertex="1" parent="1">
          <mxGeometry x="200" y="2120" width="160" height="120" as="geometry" />
        </mxCell>
        <mxCell id="cq9fGqPeD2-OZJ-PsZSs-6" value="&lt;span style=&quot;border-color: var(--border-color); color: rgb(0, 0, 0); font-family: Helvetica; font-style: normal; font-variant-ligatures: normal; font-variant-caps: normal; font-weight: 400; letter-spacing: normal; orphans: 2; text-indent: 0px; text-transform: none; widows: 2; word-spacing: 0px; -webkit-text-stroke-width: 0px; text-decoration-thickness: initial; text-decoration-style: initial; text-decoration-color: initial; font-size: 14px; background-color: rgb(251, 251, 251); float: none; display: inline !important;&quot;&gt;&amp;nbsp;I&lt;/span&gt;&lt;br style=&quot;border-color: var(--border-color); color: rgb(0, 0, 0); font-family: Helvetica; font-style: normal; font-variant-ligatures: normal; font-variant-caps: normal; font-weight: 400; letter-spacing: normal; orphans: 2; text-indent: 0px; text-transform: none; widows: 2; word-spacing: 0px; -webkit-text-stroke-width: 0px; text-decoration-thickness: initial; text-decoration-style: initial; text-decoration-color: initial; font-size: 14px; background-color: rgb(251, 251, 251);&quot;&gt;&lt;span style=&quot;border-color: var(--border-color); color: rgb(0, 0, 0); font-family: Helvetica; font-style: normal; font-variant-ligatures: normal; font-variant-caps: normal; font-weight: 400; letter-spacing: normal; orphans: 2; text-indent: 0px; text-transform: none; widows: 2; word-spacing: 0px; -webkit-text-stroke-width: 0px; text-decoration-thickness: initial; text-decoration-style: initial; text-decoration-color: initial; font-size: 14px; background-color: rgb(251, 251, 251); float: none; display: inline !important;&quot;&gt;&amp;nbsp;You&lt;/span&gt;&lt;br style=&quot;border-color: var(--border-color); color: rgb(0, 0, 0); font-family: Helvetica; font-style: normal; font-variant-ligatures: normal; font-variant-caps: normal; font-weight: 400; letter-spacing: normal; orphans: 2; text-indent: 0px; text-transform: none; widows: 2; word-spacing: 0px; -webkit-text-stroke-width: 0px; text-decoration-thickness: initial; text-decoration-style: initial; text-decoration-color: initial; font-size: 14px; background-color: rgb(251, 251, 251);&quot;&gt;&lt;span style=&quot;border-color: var(--border-color); color: rgb(0, 0, 0); font-family: Helvetica; font-style: normal; font-variant-ligatures: normal; font-variant-caps: normal; font-weight: 400; letter-spacing: normal; orphans: 2; text-indent: 0px; text-transform: none; widows: 2; word-spacing: 0px; -webkit-text-stroke-width: 0px; text-decoration-thickness: initial; text-decoration-style: initial; text-decoration-color: initial; font-size: 14px; background-color: rgb(251, 251, 251); float: none; display: inline !important;&quot;&gt;&amp;nbsp;We&lt;/span&gt;&lt;br style=&quot;border-color: var(--border-color); color: rgb(0, 0, 0); font-family: Helvetica; font-style: normal; font-variant-ligatures: normal; font-variant-caps: normal; font-weight: 400; letter-spacing: normal; orphans: 2; text-indent: 0px; text-transform: none; widows: 2; word-spacing: 0px; -webkit-text-stroke-width: 0px; text-decoration-thickness: initial; text-decoration-style: initial; text-decoration-color: initial; font-size: 14px; background-color: rgb(251, 251, 251);&quot;&gt;&lt;span style=&quot;border-color: var(--border-color); color: rgb(0, 0, 0); font-family: Helvetica; font-style: normal; font-variant-ligatures: normal; font-variant-caps: normal; font-weight: 400; letter-spacing: normal; orphans: 2; text-indent: 0px; text-transform: none; widows: 2; word-spacing: 0px; -webkit-text-stroke-width: 0px; text-decoration-thickness: initial; text-decoration-style: initial; text-decoration-color: initial; font-size: 14px; background-color: rgb(251, 251, 251); float: none; display: inline !important;&quot;&gt;&amp;nbsp;They&lt;/span&gt;&lt;br style=&quot;border-color: var(--border-color); color: rgb(0, 0, 0); font-family: Helvetica; font-style: normal; font-variant-ligatures: normal; font-variant-caps: normal; font-weight: 400; letter-spacing: normal; orphans: 2; text-indent: 0px; text-transform: none; widows: 2; word-spacing: 0px; -webkit-text-stroke-width: 0px; text-decoration-thickness: initial; text-decoration-style: initial; text-decoration-color: initial; font-size: 14px; background-color: rgb(251, 251, 251);&quot;&gt;&lt;span style=&quot;border-color: var(--border-color); color: rgb(0, 0, 0); font-family: Helvetica; font-style: normal; font-variant-ligatures: normal; font-variant-caps: normal; font-weight: 400; letter-spacing: normal; orphans: 2; text-indent: 0px; text-transform: none; widows: 2; word-spacing: 0px; -webkit-text-stroke-width: 0px; text-decoration-thickness: initial; text-decoration-style: initial; text-decoration-color: initial; font-size: 14px; background-color: rgb(251, 251, 251); float: none; display: inline !important;&quot;&gt;&amp;nbsp;He&lt;/span&gt;&lt;br style=&quot;border-color: var(--border-color); color: rgb(0, 0, 0); font-family: Helvetica; font-style: normal; font-variant-ligatures: normal; font-variant-caps: normal; font-weight: 400; letter-spacing: normal; orphans: 2; text-indent: 0px; text-transform: none; widows: 2; word-spacing: 0px; -webkit-text-stroke-width: 0px; text-decoration-thickness: initial; text-decoration-style: initial; text-decoration-color: initial; font-size: 14px; background-color: rgb(251, 251, 251);&quot;&gt;&lt;span style=&quot;border-color: var(--border-color); color: rgb(0, 0, 0); font-family: Helvetica; font-style: normal; font-variant-ligatures: normal; font-variant-caps: normal; font-weight: 400; letter-spacing: normal; orphans: 2; text-indent: 0px; text-transform: none; widows: 2; word-spacing: 0px; -webkit-text-stroke-width: 0px; text-decoration-thickness: initial; text-decoration-style: initial; text-decoration-color: initial; font-size: 14px; background-color: rgb(251, 251, 251); float: none; display: inline !important;&quot;&gt;&amp;nbsp;She&lt;/span&gt;" style="rounded=0;whiteSpace=wrap;html=1;align=left;fillColor=#f5f5f5;fontColor=#333333;strokeColor=#666666;" vertex="1" parent="1">
          <mxGeometry x="200" y="2000" width="160" height="120" as="geometry" />
        </mxCell>
        <mxCell id="cq9fGqPeD2-OZJ-PsZSs-7" value="&amp;nbsp;I&lt;br style=&quot;border-color: var(--border-color); font-size: 14px;&quot;&gt;&lt;span style=&quot;border-color: var(--border-color); font-size: 14px;&quot;&gt;&amp;nbsp;You&lt;/span&gt;&lt;br style=&quot;border-color: var(--border-color); font-size: 14px;&quot;&gt;&lt;span style=&quot;border-color: var(--border-color); font-size: 14px;&quot;&gt;&amp;nbsp;We&lt;/span&gt;&lt;br style=&quot;border-color: var(--border-color); font-size: 14px;&quot;&gt;&lt;span style=&quot;border-color: var(--border-color); font-size: 14px;&quot;&gt;&amp;nbsp;They&lt;/span&gt;&lt;br style=&quot;border-color: var(--border-color); font-size: 14px;&quot;&gt;&lt;span style=&quot;border-color: var(--border-color); font-size: 14px;&quot;&gt;&amp;nbsp;He&lt;/span&gt;&lt;br style=&quot;border-color: var(--border-color); font-size: 14px;&quot;&gt;&lt;span style=&quot;border-color: var(--border-color); font-size: 14px;&quot;&gt;&amp;nbsp;She&lt;/span&gt;" style="rounded=0;whiteSpace=wrap;html=1;align=left;fillColor=#dae8fc;strokeColor=#6c8ebf;" vertex="1" parent="1">
          <mxGeometry x="360" y="1880" width="160" height="120" as="geometry" />
        </mxCell>
        <mxCell id="cq9fGqPeD2-OZJ-PsZSs-8" value="&amp;nbsp;I&lt;br style=&quot;border-color: var(--border-color); font-size: 14px;&quot;&gt;&lt;span style=&quot;border-color: var(--border-color); font-size: 14px;&quot;&gt;&amp;nbsp;You&lt;/span&gt;&lt;br style=&quot;border-color: var(--border-color); font-size: 14px;&quot;&gt;&lt;span style=&quot;border-color: var(--border-color); font-size: 14px;&quot;&gt;&amp;nbsp;We&lt;/span&gt;&lt;br style=&quot;border-color: var(--border-color); font-size: 14px;&quot;&gt;&lt;span style=&quot;border-color: var(--border-color); font-size: 14px;&quot;&gt;&amp;nbsp;They&lt;/span&gt;&lt;br style=&quot;border-color: var(--border-color); font-size: 14px;&quot;&gt;&lt;span style=&quot;border-color: var(--border-color); font-size: 14px;&quot;&gt;&amp;nbsp;He&lt;/span&gt;&lt;br style=&quot;border-color: var(--border-color); font-size: 14px;&quot;&gt;&lt;span style=&quot;border-color: var(--border-color); font-size: 14px;&quot;&gt;&amp;nbsp;She&lt;/span&gt;" style="rounded=0;whiteSpace=wrap;html=1;align=left;fillColor=#f5f5f5;fontColor=#333333;strokeColor=#666666;" vertex="1" parent="1">
          <mxGeometry x="360" y="2000" width="160" height="120" as="geometry" />
        </mxCell>
        <mxCell id="cq9fGqPeD2-OZJ-PsZSs-9" value="&amp;nbsp;I&lt;br style=&quot;border-color: var(--border-color); font-size: 14px;&quot;&gt;&lt;span style=&quot;border-color: var(--border-color); font-size: 14px;&quot;&gt;&amp;nbsp;You&lt;/span&gt;&lt;br style=&quot;border-color: var(--border-color); font-size: 14px;&quot;&gt;&lt;span style=&quot;border-color: var(--border-color); font-size: 14px;&quot;&gt;&amp;nbsp;We&lt;/span&gt;&lt;br style=&quot;border-color: var(--border-color); font-size: 14px;&quot;&gt;&lt;span style=&quot;border-color: var(--border-color); font-size: 14px;&quot;&gt;&amp;nbsp;They&lt;/span&gt;&lt;br style=&quot;border-color: var(--border-color); font-size: 14px;&quot;&gt;&lt;span style=&quot;border-color: var(--border-color); font-size: 14px;&quot;&gt;&amp;nbsp;He&lt;/span&gt;&lt;br style=&quot;border-color: var(--border-color); font-size: 14px;&quot;&gt;&lt;span style=&quot;border-color: var(--border-color); font-size: 14px;&quot;&gt;&amp;nbsp;She&lt;/span&gt;" style="rounded=0;whiteSpace=wrap;html=1;align=left;fillColor=#d5e8d4;strokeColor=#82b366;" vertex="1" parent="1">
          <mxGeometry x="360" y="2120" width="160" height="120" as="geometry" />
        </mxCell>
        <mxCell id="cq9fGqPeD2-OZJ-PsZSs-10" value="" style="rounded=0;whiteSpace=wrap;html=1;fillColor=#dae8fc;strokeColor=#6c8ebf;" vertex="1" parent="1">
          <mxGeometry x="-40" y="1880" width="80" height="120" as="geometry" />
        </mxCell>
        <mxCell id="cq9fGqPeD2-OZJ-PsZSs-11" value="" style="rounded=0;whiteSpace=wrap;html=1;fillColor=#d5e8d4;strokeColor=#82b366;" vertex="1" parent="1">
          <mxGeometry x="-40" y="2120" width="80" height="120" as="geometry" />
        </mxCell>
        <mxCell id="cq9fGqPeD2-OZJ-PsZSs-12" value="" style="rounded=0;whiteSpace=wrap;html=1;fillColor=#f5f5f5;fontColor=#333333;strokeColor=#666666;" vertex="1" parent="1">
          <mxGeometry x="-40" y="2000" width="80" height="120" as="geometry" />
        </mxCell>
        <mxCell id="cq9fGqPeD2-OZJ-PsZSs-13" value="" style="rounded=0;whiteSpace=wrap;html=1;fillColor=#dae8fc;strokeColor=#6c8ebf;" vertex="1" parent="1">
          <mxGeometry x="520" y="1880" width="40" height="120" as="geometry" />
        </mxCell>
        <mxCell id="cq9fGqPeD2-OZJ-PsZSs-14" value="" style="rounded=0;whiteSpace=wrap;html=1;fillColor=#d5e8d4;strokeColor=#82b366;" vertex="1" parent="1">
          <mxGeometry x="520" y="2120" width="40" height="120" as="geometry" />
        </mxCell>
        <mxCell id="cq9fGqPeD2-OZJ-PsZSs-15" value="" style="rounded=0;whiteSpace=wrap;html=1;fillColor=#f5f5f5;fontColor=#333333;strokeColor=#666666;" vertex="1" parent="1">
          <mxGeometry x="520" y="2000" width="40" height="120" as="geometry" />
        </mxCell>
        <mxCell id="cq9fGqPeD2-OZJ-PsZSs-16" value="&lt;font style=&quot;font-size: 36px;&quot;&gt;?&lt;/font&gt;" style="rounded=0;whiteSpace=wrap;html=1;" vertex="1" parent="1">
          <mxGeometry x="-40" y="1840" width="240" height="40" as="geometry" />
        </mxCell>
        <mxCell id="cq9fGqPeD2-OZJ-PsZSs-17" value="&lt;font style=&quot;font-size: 36px;&quot;&gt;+&lt;/font&gt;" style="rounded=0;whiteSpace=wrap;html=1;" vertex="1" parent="1">
          <mxGeometry x="200" y="1840" width="160" height="40" as="geometry" />
        </mxCell>
        <mxCell id="cq9fGqPeD2-OZJ-PsZSs-18" value="&lt;font style=&quot;font-size: 36px;&quot;&gt;-&lt;/font&gt;" style="rounded=0;whiteSpace=wrap;html=1;" vertex="1" parent="1">
          <mxGeometry x="360" y="1840" width="160" height="40" as="geometry" />
        </mxCell>
        <mxCell id="cq9fGqPeD2-OZJ-PsZSs-19" value="Future" style="text;html=1;strokeColor=none;fillColor=none;align=center;verticalAlign=middle;whiteSpace=wrap;rounded=0;rotation=90;" vertex="1" parent="1">
          <mxGeometry x="510" y="1925" width="60" height="30" as="geometry" />
        </mxCell>
        <mxCell id="cq9fGqPeD2-OZJ-PsZSs-20" value="Present" style="text;html=1;strokeColor=none;fillColor=none;align=center;verticalAlign=middle;whiteSpace=wrap;rounded=0;rotation=90;" vertex="1" parent="1">
          <mxGeometry x="510" y="2045" width="60" height="30" as="geometry" />
        </mxCell>
        <mxCell id="cq9fGqPeD2-OZJ-PsZSs-21" value="Past" style="text;html=1;strokeColor=none;fillColor=none;align=center;verticalAlign=middle;whiteSpace=wrap;rounded=0;rotation=90;" vertex="1" parent="1">
          <mxGeometry x="510" y="2165" width="60" height="30" as="geometry" />
        </mxCell>
        <mxCell id="cq9fGqPeD2-OZJ-PsZSs-22" value="" style="strokeWidth=2;html=1;shape=mxgraph.flowchart.annotation_2;align=left;labelPosition=right;pointerEvents=1;rotation=-180;" vertex="1" parent="1">
          <mxGeometry x="80" y="1890" width="20" height="100" as="geometry" />
        </mxCell>
        <mxCell id="cq9fGqPeD2-OZJ-PsZSs-23" value="&lt;font style=&quot;font-size: 16px;&quot;&gt;live&lt;/font&gt;" style="text;html=1;strokeColor=none;fillColor=none;align=center;verticalAlign=middle;whiteSpace=wrap;rounded=0;" vertex="1" parent="1">
          <mxGeometry x="90" y="1925" width="60" height="30" as="geometry" />
        </mxCell>
        <mxCell id="cq9fGqPeD2-OZJ-PsZSs-25" value="" style="strokeWidth=2;html=1;shape=mxgraph.flowchart.annotation_2;align=left;labelPosition=right;pointerEvents=1;rotation=-180;" vertex="1" parent="1">
          <mxGeometry x="240" y="1890" width="20" height="100" as="geometry" />
        </mxCell>
        <mxCell id="cq9fGqPeD2-OZJ-PsZSs-26" value="&lt;font style=&quot;font-size: 16px;&quot;&gt;will live&lt;/font&gt;" style="text;html=1;strokeColor=none;fillColor=none;align=center;verticalAlign=middle;whiteSpace=wrap;rounded=0;" vertex="1" parent="1">
          <mxGeometry x="260" y="1925" width="70" height="30" as="geometry" />
        </mxCell>
        <mxCell id="cq9fGqPeD2-OZJ-PsZSs-27" value="" style="strokeWidth=2;html=1;shape=mxgraph.flowchart.annotation_2;align=left;labelPosition=right;pointerEvents=1;rotation=-180;" vertex="1" parent="1">
          <mxGeometry x="404" y="1890" width="20" height="100" as="geometry" />
        </mxCell>
        <mxCell id="cq9fGqPeD2-OZJ-PsZSs-28" value="&lt;font style=&quot;font-size: 16px;&quot;&gt;will not live&lt;/font&gt;" style="text;html=1;strokeColor=none;fillColor=none;align=center;verticalAlign=middle;whiteSpace=wrap;rounded=0;" vertex="1" parent="1">
          <mxGeometry x="424" y="1925" width="90" height="30" as="geometry" />
        </mxCell>
        <mxCell id="cq9fGqPeD2-OZJ-PsZSs-29" value="" style="strokeWidth=2;html=1;shape=mxgraph.flowchart.annotation_2;align=left;labelPosition=right;pointerEvents=1;rotation=-180;" vertex="1" parent="1">
          <mxGeometry x="240" y="2010" width="20" height="70" as="geometry" />
        </mxCell>
        <mxCell id="cq9fGqPeD2-OZJ-PsZSs-30" value="" style="strokeWidth=2;html=1;shape=mxgraph.flowchart.annotation_2;align=left;labelPosition=right;pointerEvents=1;rotation=-180;" vertex="1" parent="1">
          <mxGeometry x="240" y="2080" width="20" height="30" as="geometry" />
        </mxCell>
        <mxCell id="cq9fGqPeD2-OZJ-PsZSs-33" value="&lt;font style=&quot;font-size: 16px;&quot;&gt;live&lt;/font&gt;" style="text;html=1;strokeColor=none;fillColor=none;align=center;verticalAlign=middle;whiteSpace=wrap;rounded=0;" vertex="1" parent="1">
          <mxGeometry x="240" y="2030" width="70" height="30" as="geometry" />
        </mxCell>
        <mxCell id="cq9fGqPeD2-OZJ-PsZSs-34" value="&lt;font style=&quot;font-size: 16px;&quot;&gt;live&lt;u&gt;s&lt;/u&gt;&lt;/font&gt;" style="text;html=1;strokeColor=none;fillColor=none;align=center;verticalAlign=middle;whiteSpace=wrap;rounded=0;" vertex="1" parent="1">
          <mxGeometry x="245" y="2080" width="70" height="30" as="geometry" />
        </mxCell>
        <mxCell id="cq9fGqPeD2-OZJ-PsZSs-35" value="" style="strokeWidth=2;html=1;shape=mxgraph.flowchart.annotation_2;align=left;labelPosition=right;pointerEvents=1;rotation=-180;" vertex="1" parent="1">
          <mxGeometry x="400" y="2010" width="20" height="70" as="geometry" />
        </mxCell>
        <mxCell id="cq9fGqPeD2-OZJ-PsZSs-36" value="" style="strokeWidth=2;html=1;shape=mxgraph.flowchart.annotation_2;align=left;labelPosition=right;pointerEvents=1;rotation=-180;" vertex="1" parent="1">
          <mxGeometry x="400" y="2080" width="20" height="30" as="geometry" />
        </mxCell>
        <mxCell id="cq9fGqPeD2-OZJ-PsZSs-37" value="&lt;font style=&quot;font-size: 16px;&quot;&gt;do not live&lt;/font&gt;" style="text;html=1;strokeColor=none;fillColor=none;align=center;verticalAlign=middle;whiteSpace=wrap;rounded=0;" vertex="1" parent="1">
          <mxGeometry x="420" y="2030" width="80" height="30" as="geometry" />
        </mxCell>
        <mxCell id="cq9fGqPeD2-OZJ-PsZSs-38" value="&lt;font style=&quot;font-size: 16px;&quot;&gt;does not live&lt;/font&gt;" style="text;html=1;strokeColor=none;fillColor=none;align=center;verticalAlign=middle;whiteSpace=wrap;rounded=0;" vertex="1" parent="1">
          <mxGeometry x="419" y="2080" width="100" height="30" as="geometry" />
        </mxCell>
        <mxCell id="cq9fGqPeD2-OZJ-PsZSs-39" value="" style="strokeWidth=2;html=1;shape=mxgraph.flowchart.annotation_2;align=left;labelPosition=right;pointerEvents=1;rotation=-180;" vertex="1" parent="1">
          <mxGeometry x="80" y="2010" width="20" height="100" as="geometry" />
        </mxCell>
        <mxCell id="cq9fGqPeD2-OZJ-PsZSs-40" value="&lt;font style=&quot;font-size: 16px;&quot;&gt;live&lt;/font&gt;" style="text;html=1;strokeColor=none;fillColor=none;align=center;verticalAlign=middle;whiteSpace=wrap;rounded=0;" vertex="1" parent="1">
          <mxGeometry x="90" y="2045" width="60" height="30" as="geometry" />
        </mxCell>
        <mxCell id="cq9fGqPeD2-OZJ-PsZSs-41" value="" style="endArrow=none;html=1;rounded=0;exitX=-0.006;exitY=0.625;exitDx=0;exitDy=0;exitPerimeter=0;entryX=1.006;entryY=0.629;entryDx=0;entryDy=0;entryPerimeter=0;" edge="1" parent="1" source="cq9fGqPeD2-OZJ-PsZSs-12" target="cq9fGqPeD2-OZJ-PsZSs-12">
          <mxGeometry width="50" height="50" relative="1" as="geometry">
            <mxPoint x="-30" y="2080" as="sourcePoint" />
            <mxPoint x="35" y="2075" as="targetPoint" />
          </mxGeometry>
        </mxCell>
        <mxCell id="cq9fGqPeD2-OZJ-PsZSs-43" value="&lt;font style=&quot;font-size: 16px;&quot;&gt;Do&lt;/font&gt;" style="text;html=1;strokeColor=none;fillColor=none;align=center;verticalAlign=middle;whiteSpace=wrap;rounded=0;" vertex="1" parent="1">
          <mxGeometry x="-30" y="2030" width="60" height="30" as="geometry" />
        </mxCell>
        <mxCell id="cq9fGqPeD2-OZJ-PsZSs-44" value="&lt;font style=&quot;font-size: 16px;&quot;&gt;Does&lt;/font&gt;" style="text;html=1;strokeColor=none;fillColor=none;align=center;verticalAlign=middle;whiteSpace=wrap;rounded=0;" vertex="1" parent="1">
          <mxGeometry x="-30" y="2080" width="60" height="30" as="geometry" />
        </mxCell>
        <mxCell id="cq9fGqPeD2-OZJ-PsZSs-45" value="" style="strokeWidth=2;html=1;shape=mxgraph.flowchart.annotation_2;align=left;labelPosition=right;pointerEvents=1;rotation=-180;" vertex="1" parent="1">
          <mxGeometry x="80" y="2130" width="20" height="100" as="geometry" />
        </mxCell>
        <mxCell id="cq9fGqPeD2-OZJ-PsZSs-46" value="&lt;font style=&quot;font-size: 16px;&quot;&gt;live&lt;/font&gt;" style="text;html=1;strokeColor=none;fillColor=none;align=center;verticalAlign=middle;whiteSpace=wrap;rounded=0;" vertex="1" parent="1">
          <mxGeometry x="95.38" y="2165" width="60" height="30" as="geometry" />
        </mxCell>
        <mxCell id="cq9fGqPeD2-OZJ-PsZSs-47" value="&lt;font style=&quot;font-size: 16px;&quot;&gt;Did&lt;/font&gt;" style="text;html=1;strokeColor=none;fillColor=none;align=center;verticalAlign=middle;whiteSpace=wrap;rounded=0;" vertex="1" parent="1">
          <mxGeometry x="-30" y="2165" width="60" height="30" as="geometry" />
        </mxCell>
        <mxCell id="cq9fGqPeD2-OZJ-PsZSs-50" value="&lt;font style=&quot;font-size: 16px;&quot;&gt;Will&lt;/font&gt;" style="text;html=1;strokeColor=none;fillColor=none;align=center;verticalAlign=middle;whiteSpace=wrap;rounded=0;" vertex="1" parent="1">
          <mxGeometry x="-30" y="1925" width="60" height="30" as="geometry" />
        </mxCell>
        <mxCell id="cq9fGqPeD2-OZJ-PsZSs-51" value="" style="strokeWidth=2;html=1;shape=mxgraph.flowchart.annotation_2;align=left;labelPosition=right;pointerEvents=1;rotation=-180;" vertex="1" parent="1">
          <mxGeometry x="240" y="2130" width="20" height="100" as="geometry" />
        </mxCell>
        <mxCell id="cq9fGqPeD2-OZJ-PsZSs-52" value="&lt;font style=&quot;font-size: 16px;&quot;&gt;Lived&lt;/font&gt;" style="text;html=1;strokeColor=none;fillColor=none;align=center;verticalAlign=middle;whiteSpace=wrap;rounded=0;" vertex="1" parent="1">
          <mxGeometry x="265" y="2150" width="70" height="30" as="geometry" />
        </mxCell>
        <mxCell id="cq9fGqPeD2-OZJ-PsZSs-53" value="&lt;font style=&quot;font-size: 16px;&quot;&gt;( V&lt;sub&gt;3&amp;nbsp;&lt;/sub&gt;)&lt;/font&gt;" style="text;html=1;strokeColor=none;fillColor=none;align=center;verticalAlign=middle;whiteSpace=wrap;rounded=0;" vertex="1" parent="1">
          <mxGeometry x="265" y="2180" width="70" height="30" as="geometry" />
        </mxCell>
        <mxCell id="cq9fGqPeD2-OZJ-PsZSs-55" value="" style="strokeWidth=2;html=1;shape=mxgraph.flowchart.annotation_2;align=left;labelPosition=right;pointerEvents=1;rotation=-180;" vertex="1" parent="1">
          <mxGeometry x="400" y="2130" width="20" height="100" as="geometry" />
        </mxCell>
        <mxCell id="cq9fGqPeD2-OZJ-PsZSs-56" value="&lt;font style=&quot;font-size: 16px;&quot;&gt;did not live&lt;/font&gt;" style="text;html=1;strokeColor=none;fillColor=none;align=center;verticalAlign=middle;whiteSpace=wrap;rounded=0;" vertex="1" parent="1">
          <mxGeometry x="414" y="2165" width="100" height="30" as="geometry" />
        </mxCell>
        <mxCell id="cq9fGqPeD2-OZJ-PsZSs-57" value="&lt;font style=&quot;font-size: 14px;&quot;&gt;&amp;nbsp;I&lt;br&gt;&amp;nbsp;You&lt;br&gt;&amp;nbsp;We&lt;br&gt;&amp;nbsp;They&lt;br&gt;&amp;nbsp;He&lt;br&gt;&amp;nbsp;She&lt;br&gt;&lt;/font&gt;" style="rounded=0;whiteSpace=wrap;html=1;align=left;fillColor=#dae8fc;strokeColor=#6c8ebf;" vertex="1" parent="1">
          <mxGeometry x="10.480000000000004" y="2470" width="160" height="120" as="geometry" />
        </mxCell>
        <mxCell id="cq9fGqPeD2-OZJ-PsZSs-58" value="&lt;font style=&quot;font-size: 12px;&quot;&gt;&amp;nbsp;I&lt;br style=&quot;border-color: var(--border-color);&quot;&gt;&amp;nbsp;You&lt;br style=&quot;border-color: var(--border-color);&quot;&gt;&amp;nbsp;We&lt;br style=&quot;border-color: var(--border-color);&quot;&gt;&amp;nbsp;They&lt;br style=&quot;border-color: var(--border-color);&quot;&gt;&amp;nbsp;He&lt;br style=&quot;border-color: var(--border-color);&quot;&gt;&amp;nbsp;She&lt;br&gt;&amp;nbsp;It&lt;/font&gt;" style="rounded=0;whiteSpace=wrap;html=1;align=left;fillColor=#f5f5f5;fontColor=#333333;strokeColor=#666666;" vertex="1" parent="1">
          <mxGeometry x="10.96" y="2590" width="160" height="120" as="geometry" />
        </mxCell>
        <mxCell id="cq9fGqPeD2-OZJ-PsZSs-59" value="&amp;nbsp;I&lt;br style=&quot;border-color: var(--border-color);&quot;&gt;&amp;nbsp;He&lt;br style=&quot;border-color: var(--border-color); font-size: 14px;&quot;&gt;&amp;nbsp;&lt;span style=&quot;border-color: var(--border-color);&quot;&gt;&lt;font style=&quot;border-color: var(--border-color);&quot;&gt;She&lt;/font&gt;&lt;br style=&quot;border-color: var(--border-color);&quot;&gt;&lt;/span&gt;&amp;nbsp;It&lt;br style=&quot;border-color: var(--border-color); font-size: 14px;&quot;&gt;&lt;span style=&quot;border-color: var(--border-color); font-size: 14px;&quot;&gt;&amp;nbsp;&lt;/span&gt;&lt;font style=&quot;border-color: var(--border-color);&quot;&gt;&lt;span style=&quot;border-color: var(--border-color);&quot;&gt;You&lt;/span&gt;&lt;br style=&quot;border-color: var(--border-color);&quot;&gt;&lt;span style=&quot;border-color: var(--border-color);&quot;&gt;&amp;nbsp;We&lt;/span&gt;&lt;br style=&quot;border-color: var(--border-color);&quot;&gt;&lt;span style=&quot;border-color: var(--border-color);&quot;&gt;&amp;nbsp;They&lt;/span&gt;&lt;/font&gt;" style="rounded=0;whiteSpace=wrap;html=1;align=left;fillColor=#d5e8d4;strokeColor=#82b366;" vertex="1" parent="1">
          <mxGeometry x="10.480000000000004" y="2710" width="160" height="120" as="geometry" />
        </mxCell>
        <mxCell id="cq9fGqPeD2-OZJ-PsZSs-60" value="&lt;span style=&quot;color: rgb(0, 0, 0); font-family: Helvetica; font-size: 14px; font-style: normal; font-variant-ligatures: normal; font-variant-caps: normal; font-weight: 400; letter-spacing: normal; orphans: 2; text-indent: 0px; text-transform: none; widows: 2; word-spacing: 0px; -webkit-text-stroke-width: 0px; background-color: rgb(251, 251, 251); text-decoration-thickness: initial; text-decoration-style: initial; text-decoration-color: initial; float: none; display: inline !important;&quot;&gt;&amp;nbsp;I&lt;/span&gt;&lt;br style=&quot;border-color: var(--border-color); color: rgb(0, 0, 0); font-family: Helvetica; font-size: 14px; font-style: normal; font-variant-ligatures: normal; font-variant-caps: normal; font-weight: 400; letter-spacing: normal; orphans: 2; text-indent: 0px; text-transform: none; widows: 2; word-spacing: 0px; -webkit-text-stroke-width: 0px; background-color: rgb(251, 251, 251); text-decoration-thickness: initial; text-decoration-style: initial; text-decoration-color: initial;&quot;&gt;&lt;span style=&quot;color: rgb(0, 0, 0); font-family: Helvetica; font-size: 14px; font-style: normal; font-variant-ligatures: normal; font-variant-caps: normal; font-weight: 400; letter-spacing: normal; orphans: 2; text-indent: 0px; text-transform: none; widows: 2; word-spacing: 0px; -webkit-text-stroke-width: 0px; background-color: rgb(251, 251, 251); text-decoration-thickness: initial; text-decoration-style: initial; text-decoration-color: initial; float: none; display: inline !important;&quot;&gt;&amp;nbsp;You&lt;/span&gt;&lt;br style=&quot;border-color: var(--border-color); color: rgb(0, 0, 0); font-family: Helvetica; font-size: 14px; font-style: normal; font-variant-ligatures: normal; font-variant-caps: normal; font-weight: 400; letter-spacing: normal; orphans: 2; text-indent: 0px; text-transform: none; widows: 2; word-spacing: 0px; -webkit-text-stroke-width: 0px; background-color: rgb(251, 251, 251); text-decoration-thickness: initial; text-decoration-style: initial; text-decoration-color: initial;&quot;&gt;&lt;span style=&quot;color: rgb(0, 0, 0); font-family: Helvetica; font-size: 14px; font-style: normal; font-variant-ligatures: normal; font-variant-caps: normal; font-weight: 400; letter-spacing: normal; orphans: 2; text-indent: 0px; text-transform: none; widows: 2; word-spacing: 0px; -webkit-text-stroke-width: 0px; background-color: rgb(251, 251, 251); text-decoration-thickness: initial; text-decoration-style: initial; text-decoration-color: initial; float: none; display: inline !important;&quot;&gt;&amp;nbsp;We&lt;/span&gt;&lt;br style=&quot;border-color: var(--border-color); color: rgb(0, 0, 0); font-family: Helvetica; font-size: 14px; font-style: normal; font-variant-ligatures: normal; font-variant-caps: normal; font-weight: 400; letter-spacing: normal; orphans: 2; text-indent: 0px; text-transform: none; widows: 2; word-spacing: 0px; -webkit-text-stroke-width: 0px; background-color: rgb(251, 251, 251); text-decoration-thickness: initial; text-decoration-style: initial; text-decoration-color: initial;&quot;&gt;&lt;span style=&quot;color: rgb(0, 0, 0); font-family: Helvetica; font-size: 14px; font-style: normal; font-variant-ligatures: normal; font-variant-caps: normal; font-weight: 400; letter-spacing: normal; orphans: 2; text-indent: 0px; text-transform: none; widows: 2; word-spacing: 0px; -webkit-text-stroke-width: 0px; background-color: rgb(251, 251, 251); text-decoration-thickness: initial; text-decoration-style: initial; text-decoration-color: initial; float: none; display: inline !important;&quot;&gt;&amp;nbsp;They&lt;/span&gt;&lt;br style=&quot;border-color: var(--border-color); color: rgb(0, 0, 0); font-family: Helvetica; font-size: 14px; font-style: normal; font-variant-ligatures: normal; font-variant-caps: normal; font-weight: 400; letter-spacing: normal; orphans: 2; text-indent: 0px; text-transform: none; widows: 2; word-spacing: 0px; -webkit-text-stroke-width: 0px; background-color: rgb(251, 251, 251); text-decoration-thickness: initial; text-decoration-style: initial; text-decoration-color: initial;&quot;&gt;&lt;span style=&quot;color: rgb(0, 0, 0); font-family: Helvetica; font-size: 14px; font-style: normal; font-variant-ligatures: normal; font-variant-caps: normal; font-weight: 400; letter-spacing: normal; orphans: 2; text-indent: 0px; text-transform: none; widows: 2; word-spacing: 0px; -webkit-text-stroke-width: 0px; background-color: rgb(251, 251, 251); text-decoration-thickness: initial; text-decoration-style: initial; text-decoration-color: initial; float: none; display: inline !important;&quot;&gt;&amp;nbsp;He&lt;/span&gt;&lt;br style=&quot;border-color: var(--border-color); color: rgb(0, 0, 0); font-family: Helvetica; font-size: 14px; font-style: normal; font-variant-ligatures: normal; font-variant-caps: normal; font-weight: 400; letter-spacing: normal; orphans: 2; text-indent: 0px; text-transform: none; widows: 2; word-spacing: 0px; -webkit-text-stroke-width: 0px; background-color: rgb(251, 251, 251); text-decoration-thickness: initial; text-decoration-style: initial; text-decoration-color: initial;&quot;&gt;&lt;span style=&quot;color: rgb(0, 0, 0); font-family: Helvetica; font-size: 14px; font-style: normal; font-variant-ligatures: normal; font-variant-caps: normal; font-weight: 400; letter-spacing: normal; orphans: 2; text-indent: 0px; text-transform: none; widows: 2; word-spacing: 0px; -webkit-text-stroke-width: 0px; background-color: rgb(251, 251, 251); text-decoration-thickness: initial; text-decoration-style: initial; text-decoration-color: initial; float: none; display: inline !important;&quot;&gt;&amp;nbsp;She&lt;/span&gt;" style="rounded=0;whiteSpace=wrap;html=1;align=left;fillColor=#dae8fc;strokeColor=#6c8ebf;" vertex="1" parent="1">
          <mxGeometry x="170.48" y="2470" width="160" height="120" as="geometry" />
        </mxCell>
        <mxCell id="cq9fGqPeD2-OZJ-PsZSs-61" value="&amp;nbsp;I&lt;br&gt;&amp;nbsp;He&lt;br style=&quot;border-color: var(--border-color); font-size: 14px;&quot;&gt;&lt;span style=&quot;border-color: var(--border-color); font-size: 14px;&quot;&gt;&amp;nbsp;&lt;/span&gt;&lt;span style=&quot;border-color: var(--border-color);&quot;&gt;&lt;font style=&quot;font-size: 12px;&quot;&gt;She&lt;/font&gt;&lt;br&gt;&lt;/span&gt;&amp;nbsp;It&lt;br style=&quot;border-color: var(--border-color); font-size: 14px;&quot;&gt;&lt;span style=&quot;border-color: var(--border-color); font-size: 14px;&quot;&gt;&amp;nbsp;&lt;/span&gt;&lt;font style=&quot;font-size: 12px;&quot;&gt;&lt;span style=&quot;border-color: var(--border-color);&quot;&gt;You&lt;/span&gt;&lt;br style=&quot;border-color: var(--border-color);&quot;&gt;&lt;span style=&quot;border-color: var(--border-color);&quot;&gt;&amp;nbsp;We&lt;/span&gt;&lt;br style=&quot;border-color: var(--border-color);&quot;&gt;&lt;span style=&quot;border-color: var(--border-color);&quot;&gt;&amp;nbsp;They&lt;/span&gt;&lt;/font&gt;" style="rounded=0;whiteSpace=wrap;html=1;align=left;fillColor=#f8cecc;strokeColor=#b85450;" vertex="1" parent="1">
          <mxGeometry x="170.48" y="2710" width="160" height="120" as="geometry" />
        </mxCell>
        <mxCell id="cq9fGqPeD2-OZJ-PsZSs-62" value="&lt;span style=&quot;border-color: var(--border-color); color: rgb(0, 0, 0); font-family: Helvetica; font-style: normal; font-variant-ligatures: normal; font-variant-caps: normal; font-weight: 400; letter-spacing: normal; orphans: 2; text-indent: 0px; text-transform: none; widows: 2; word-spacing: 0px; -webkit-text-stroke-width: 0px; text-decoration-thickness: initial; text-decoration-style: initial; text-decoration-color: initial; font-size: 14px; background-color: rgb(251, 251, 251); float: none; display: inline !important;&quot;&gt;&amp;nbsp;&lt;/span&gt;&lt;font style=&quot;font-size: 12px;&quot;&gt;&lt;span style=&quot;border-color: var(--border-color); color: rgb(0, 0, 0); font-family: Helvetica; font-style: normal; font-variant-ligatures: normal; font-variant-caps: normal; font-weight: 400; letter-spacing: normal; orphans: 2; text-indent: 0px; text-transform: none; widows: 2; word-spacing: 0px; -webkit-text-stroke-width: 0px; text-decoration-thickness: initial; text-decoration-style: initial; text-decoration-color: initial; background-color: rgb(251, 251, 251); float: none; display: inline !important;&quot;&gt;I&lt;/span&gt;&lt;br style=&quot;border-color: var(--border-color); color: rgb(0, 0, 0); font-family: Helvetica; font-style: normal; font-variant-ligatures: normal; font-variant-caps: normal; font-weight: 400; letter-spacing: normal; orphans: 2; text-indent: 0px; text-transform: none; widows: 2; word-spacing: 0px; -webkit-text-stroke-width: 0px; text-decoration-thickness: initial; text-decoration-style: initial; text-decoration-color: initial; background-color: rgb(251, 251, 251);&quot;&gt;&lt;span style=&quot;border-color: var(--border-color); color: rgb(0, 0, 0); font-family: Helvetica; font-style: normal; font-variant-ligatures: normal; font-variant-caps: normal; font-weight: 400; letter-spacing: normal; orphans: 2; text-indent: 0px; text-transform: none; widows: 2; word-spacing: 0px; -webkit-text-stroke-width: 0px; text-decoration-thickness: initial; text-decoration-style: initial; text-decoration-color: initial; background-color: rgb(251, 251, 251); float: none; display: inline !important;&quot;&gt;&amp;nbsp;You&lt;/span&gt;&lt;br style=&quot;border-color: var(--border-color); color: rgb(0, 0, 0); font-family: Helvetica; font-style: normal; font-variant-ligatures: normal; font-variant-caps: normal; font-weight: 400; letter-spacing: normal; orphans: 2; text-indent: 0px; text-transform: none; widows: 2; word-spacing: 0px; -webkit-text-stroke-width: 0px; text-decoration-thickness: initial; text-decoration-style: initial; text-decoration-color: initial; background-color: rgb(251, 251, 251);&quot;&gt;&lt;span style=&quot;border-color: var(--border-color); color: rgb(0, 0, 0); font-family: Helvetica; font-style: normal; font-variant-ligatures: normal; font-variant-caps: normal; font-weight: 400; letter-spacing: normal; orphans: 2; text-indent: 0px; text-transform: none; widows: 2; word-spacing: 0px; -webkit-text-stroke-width: 0px; text-decoration-thickness: initial; text-decoration-style: initial; text-decoration-color: initial; background-color: rgb(251, 251, 251); float: none; display: inline !important;&quot;&gt;&amp;nbsp;We&lt;/span&gt;&lt;br style=&quot;border-color: var(--border-color); color: rgb(0, 0, 0); font-family: Helvetica; font-style: normal; font-variant-ligatures: normal; font-variant-caps: normal; font-weight: 400; letter-spacing: normal; orphans: 2; text-indent: 0px; text-transform: none; widows: 2; word-spacing: 0px; -webkit-text-stroke-width: 0px; text-decoration-thickness: initial; text-decoration-style: initial; text-decoration-color: initial; background-color: rgb(251, 251, 251);&quot;&gt;&lt;span style=&quot;border-color: var(--border-color); color: rgb(0, 0, 0); font-family: Helvetica; font-style: normal; font-variant-ligatures: normal; font-variant-caps: normal; font-weight: 400; letter-spacing: normal; orphans: 2; text-indent: 0px; text-transform: none; widows: 2; word-spacing: 0px; -webkit-text-stroke-width: 0px; text-decoration-thickness: initial; text-decoration-style: initial; text-decoration-color: initial; background-color: rgb(251, 251, 251); float: none; display: inline !important;&quot;&gt;&amp;nbsp;They&lt;/span&gt;&lt;br style=&quot;border-color: var(--border-color); color: rgb(0, 0, 0); font-family: Helvetica; font-style: normal; font-variant-ligatures: normal; font-variant-caps: normal; font-weight: 400; letter-spacing: normal; orphans: 2; text-indent: 0px; text-transform: none; widows: 2; word-spacing: 0px; -webkit-text-stroke-width: 0px; text-decoration-thickness: initial; text-decoration-style: initial; text-decoration-color: initial; background-color: rgb(251, 251, 251);&quot;&gt;&lt;span style=&quot;border-color: var(--border-color); color: rgb(0, 0, 0); font-family: Helvetica; font-style: normal; font-variant-ligatures: normal; font-variant-caps: normal; font-weight: 400; letter-spacing: normal; orphans: 2; text-indent: 0px; text-transform: none; widows: 2; word-spacing: 0px; -webkit-text-stroke-width: 0px; text-decoration-thickness: initial; text-decoration-style: initial; text-decoration-color: initial; background-color: rgb(251, 251, 251); float: none; display: inline !important;&quot;&gt;&amp;nbsp;He&lt;/span&gt;&lt;br style=&quot;border-color: var(--border-color); color: rgb(0, 0, 0); font-family: Helvetica; font-style: normal; font-variant-ligatures: normal; font-variant-caps: normal; font-weight: 400; letter-spacing: normal; orphans: 2; text-indent: 0px; text-transform: none; widows: 2; word-spacing: 0px; -webkit-text-stroke-width: 0px; text-decoration-thickness: initial; text-decoration-style: initial; text-decoration-color: initial; background-color: rgb(251, 251, 251);&quot;&gt;&lt;/font&gt;&lt;span style=&quot;border-color: var(--border-color); color: rgb(0, 0, 0); font-family: Helvetica; font-style: normal; font-variant-ligatures: normal; font-variant-caps: normal; font-weight: 400; letter-spacing: normal; orphans: 2; text-indent: 0px; text-transform: none; widows: 2; word-spacing: 0px; -webkit-text-stroke-width: 0px; text-decoration-thickness: initial; text-decoration-style: initial; text-decoration-color: initial; background-color: rgb(251, 251, 251); float: none; display: inline !important;&quot;&gt;&lt;font style=&quot;font-size: 12px;&quot;&gt;&amp;nbsp;She&lt;br&gt;&amp;nbsp;It&lt;/font&gt;&lt;br&gt;&lt;/span&gt;" style="rounded=0;whiteSpace=wrap;html=1;align=left;fillColor=#f5f5f5;fontColor=#333333;strokeColor=#666666;" vertex="1" parent="1">
          <mxGeometry x="170.48" y="2590" width="160" height="120" as="geometry" />
        </mxCell>
        <mxCell id="cq9fGqPeD2-OZJ-PsZSs-63" value="&amp;nbsp;I&lt;br style=&quot;border-color: var(--border-color); font-size: 14px;&quot;&gt;&lt;span style=&quot;border-color: var(--border-color); font-size: 14px;&quot;&gt;&amp;nbsp;You&lt;/span&gt;&lt;br style=&quot;border-color: var(--border-color); font-size: 14px;&quot;&gt;&lt;span style=&quot;border-color: var(--border-color); font-size: 14px;&quot;&gt;&amp;nbsp;We&lt;/span&gt;&lt;br style=&quot;border-color: var(--border-color); font-size: 14px;&quot;&gt;&lt;span style=&quot;border-color: var(--border-color); font-size: 14px;&quot;&gt;&amp;nbsp;They&lt;/span&gt;&lt;br style=&quot;border-color: var(--border-color); font-size: 14px;&quot;&gt;&lt;span style=&quot;border-color: var(--border-color); font-size: 14px;&quot;&gt;&amp;nbsp;He&lt;/span&gt;&lt;br style=&quot;border-color: var(--border-color); font-size: 14px;&quot;&gt;&lt;span style=&quot;border-color: var(--border-color); font-size: 14px;&quot;&gt;&amp;nbsp;She&lt;/span&gt;" style="rounded=0;whiteSpace=wrap;html=1;align=left;fillColor=#dae8fc;strokeColor=#6c8ebf;" vertex="1" parent="1">
          <mxGeometry x="330.48" y="2470" width="160" height="120" as="geometry" />
        </mxCell>
        <mxCell id="cq9fGqPeD2-OZJ-PsZSs-64" value="" style="rounded=0;whiteSpace=wrap;html=1;align=left;fillColor=#f5f5f5;fontColor=#333333;strokeColor=#666666;" vertex="1" parent="1">
          <mxGeometry x="330.48" y="2590" width="160" height="120" as="geometry" />
        </mxCell>
        <mxCell id="cq9fGqPeD2-OZJ-PsZSs-65" value="" style="rounded=0;whiteSpace=wrap;html=1;align=left;fillColor=#d5e8d4;strokeColor=#82b366;" vertex="1" parent="1">
          <mxGeometry x="330.48" y="2710" width="160" height="120" as="geometry" />
        </mxCell>
        <mxCell id="cq9fGqPeD2-OZJ-PsZSs-66" value="" style="rounded=0;whiteSpace=wrap;html=1;fillColor=#dae8fc;strokeColor=#6c8ebf;" vertex="1" parent="1">
          <mxGeometry x="-69.52" y="2470" width="80" height="120" as="geometry" />
        </mxCell>
        <mxCell id="cq9fGqPeD2-OZJ-PsZSs-67" value="" style="rounded=0;whiteSpace=wrap;html=1;fillColor=#d5e8d4;strokeColor=#82b366;" vertex="1" parent="1">
          <mxGeometry x="-69.52" y="2710" width="80" height="120" as="geometry" />
        </mxCell>
        <mxCell id="cq9fGqPeD2-OZJ-PsZSs-68" value="" style="rounded=0;whiteSpace=wrap;html=1;fillColor=#f5f5f5;fontColor=#333333;strokeColor=#666666;" vertex="1" parent="1">
          <mxGeometry x="-69.52" y="2590" width="80" height="120" as="geometry" />
        </mxCell>
        <mxCell id="cq9fGqPeD2-OZJ-PsZSs-69" value="" style="rounded=0;whiteSpace=wrap;html=1;fillColor=#dae8fc;strokeColor=#6c8ebf;" vertex="1" parent="1">
          <mxGeometry x="590" y="2470" width="40" height="120" as="geometry" />
        </mxCell>
        <mxCell id="cq9fGqPeD2-OZJ-PsZSs-70" value="" style="rounded=0;whiteSpace=wrap;html=1;fillColor=#d5e8d4;strokeColor=#82b366;" vertex="1" parent="1">
          <mxGeometry x="590" y="2710" width="40" height="120" as="geometry" />
        </mxCell>
        <mxCell id="cq9fGqPeD2-OZJ-PsZSs-71" value="" style="rounded=0;whiteSpace=wrap;html=1;fillColor=#f5f5f5;fontColor=#333333;strokeColor=#666666;" vertex="1" parent="1">
          <mxGeometry x="590" y="2590" width="40" height="120" as="geometry" />
        </mxCell>
        <mxCell id="cq9fGqPeD2-OZJ-PsZSs-72" value="&lt;font style=&quot;font-size: 36px;&quot;&gt;?&lt;/font&gt;" style="rounded=0;whiteSpace=wrap;html=1;" vertex="1" parent="1">
          <mxGeometry x="-69.52" y="2430" width="240" height="40" as="geometry" />
        </mxCell>
        <mxCell id="cq9fGqPeD2-OZJ-PsZSs-73" value="&lt;font style=&quot;font-size: 36px;&quot;&gt;+&lt;/font&gt;" style="rounded=0;whiteSpace=wrap;html=1;" vertex="1" parent="1">
          <mxGeometry x="170.48" y="2430" width="160" height="40" as="geometry" />
        </mxCell>
        <mxCell id="cq9fGqPeD2-OZJ-PsZSs-74" value="&lt;font style=&quot;font-size: 36px;&quot;&gt;-&lt;/font&gt;" style="rounded=0;whiteSpace=wrap;html=1;" vertex="1" parent="1">
          <mxGeometry x="330.48" y="2430" width="160" height="40" as="geometry" />
        </mxCell>
        <mxCell id="cq9fGqPeD2-OZJ-PsZSs-75" value="Future" style="text;html=1;strokeColor=none;fillColor=none;align=center;verticalAlign=middle;whiteSpace=wrap;rounded=0;rotation=90;" vertex="1" parent="1">
          <mxGeometry x="580" y="2515" width="60" height="30" as="geometry" />
        </mxCell>
        <mxCell id="cq9fGqPeD2-OZJ-PsZSs-76" value="Present" style="text;html=1;strokeColor=none;fillColor=none;align=center;verticalAlign=middle;whiteSpace=wrap;rounded=0;rotation=90;" vertex="1" parent="1">
          <mxGeometry x="580" y="2635" width="60" height="30" as="geometry" />
        </mxCell>
        <mxCell id="cq9fGqPeD2-OZJ-PsZSs-77" value="Past" style="text;html=1;strokeColor=none;fillColor=none;align=center;verticalAlign=middle;whiteSpace=wrap;rounded=0;rotation=90;" vertex="1" parent="1">
          <mxGeometry x="580" y="2755" width="60" height="30" as="geometry" />
        </mxCell>
        <mxCell id="cq9fGqPeD2-OZJ-PsZSs-78" value="" style="strokeWidth=2;html=1;shape=mxgraph.flowchart.annotation_2;align=left;labelPosition=right;pointerEvents=1;rotation=-180;" vertex="1" parent="1">
          <mxGeometry x="50.480000000000004" y="2480" width="20" height="100" as="geometry" />
        </mxCell>
        <mxCell id="cq9fGqPeD2-OZJ-PsZSs-79" value="&lt;font style=&quot;font-size: 16px;&quot;&gt;be&lt;/font&gt;" style="text;html=1;strokeColor=none;fillColor=none;align=center;verticalAlign=middle;whiteSpace=wrap;rounded=0;" vertex="1" parent="1">
          <mxGeometry x="60.480000000000004" y="2515" width="60" height="30" as="geometry" />
        </mxCell>
        <mxCell id="cq9fGqPeD2-OZJ-PsZSs-80" value="" style="strokeWidth=2;html=1;shape=mxgraph.flowchart.annotation_2;align=left;labelPosition=right;pointerEvents=1;rotation=-180;" vertex="1" parent="1">
          <mxGeometry x="210.48" y="2480" width="20" height="100" as="geometry" />
        </mxCell>
        <mxCell id="cq9fGqPeD2-OZJ-PsZSs-81" value="&lt;font style=&quot;font-size: 16px;&quot;&gt;will be&lt;/font&gt;" style="text;html=1;strokeColor=none;fillColor=none;align=center;verticalAlign=middle;whiteSpace=wrap;rounded=0;" vertex="1" parent="1">
          <mxGeometry x="230.48000000000002" y="2515" width="70" height="30" as="geometry" />
        </mxCell>
        <mxCell id="cq9fGqPeD2-OZJ-PsZSs-82" value="" style="strokeWidth=2;html=1;shape=mxgraph.flowchart.annotation_2;align=left;labelPosition=right;pointerEvents=1;rotation=-180;" vertex="1" parent="1">
          <mxGeometry x="374.48" y="2480" width="20" height="100" as="geometry" />
        </mxCell>
        <mxCell id="cq9fGqPeD2-OZJ-PsZSs-83" value="&lt;font style=&quot;font-size: 16px;&quot;&gt;will not be&lt;/font&gt;" style="text;html=1;strokeColor=none;fillColor=none;align=center;verticalAlign=middle;whiteSpace=wrap;rounded=0;" vertex="1" parent="1">
          <mxGeometry x="394.48" y="2515" width="90" height="30" as="geometry" />
        </mxCell>
        <mxCell id="cq9fGqPeD2-OZJ-PsZSs-84" value="" style="strokeWidth=2;html=1;shape=mxgraph.flowchart.annotation_2;align=left;labelPosition=right;pointerEvents=1;rotation=-180;" vertex="1" parent="1">
          <mxGeometry x="210.48" y="2600" width="20" height="20" as="geometry" />
        </mxCell>
        <mxCell id="cq9fGqPeD2-OZJ-PsZSs-85" value="" style="strokeWidth=2;html=1;shape=mxgraph.flowchart.annotation_2;align=left;labelPosition=right;pointerEvents=1;rotation=-180;" vertex="1" parent="1">
          <mxGeometry x="210.48" y="2660" width="20" height="40" as="geometry" />
        </mxCell>
        <mxCell id="cq9fGqPeD2-OZJ-PsZSs-86" value="&lt;font style=&quot;font-size: 16px;&quot;&gt;are&lt;/font&gt;" style="text;html=1;strokeColor=none;fillColor=none;align=center;verticalAlign=middle;whiteSpace=wrap;rounded=0;" vertex="1" parent="1">
          <mxGeometry x="215.48" y="2625" width="70" height="30" as="geometry" />
        </mxCell>
        <mxCell id="cq9fGqPeD2-OZJ-PsZSs-87" value="&lt;span style=&quot;font-size: 16px;&quot;&gt;is&lt;/span&gt;" style="text;html=1;strokeColor=none;fillColor=none;align=center;verticalAlign=middle;whiteSpace=wrap;rounded=0;" vertex="1" parent="1">
          <mxGeometry x="215.48" y="2670" width="70" height="30" as="geometry" />
        </mxCell>
        <mxCell id="cq9fGqPeD2-OZJ-PsZSs-94" value="" style="endArrow=none;html=1;rounded=0;exitX=-0.006;exitY=0.625;exitDx=0;exitDy=0;exitPerimeter=0;entryX=1.006;entryY=0.629;entryDx=0;entryDy=0;entryPerimeter=0;" edge="1" parent="1">
          <mxGeometry width="50" height="50" relative="1" as="geometry">
            <mxPoint x="-69.52000000000001" y="2660" as="sourcePoint" />
            <mxPoint x="11.440000000000033" y="2660.48" as="targetPoint" />
          </mxGeometry>
        </mxCell>
        <mxCell id="cq9fGqPeD2-OZJ-PsZSs-95" value="&lt;font style=&quot;font-size: 16px;&quot;&gt;Am&lt;/font&gt;" style="text;html=1;strokeColor=none;fillColor=none;align=center;verticalAlign=middle;whiteSpace=wrap;rounded=0;" vertex="1" parent="1">
          <mxGeometry x="-59.519999999999996" y="2590" width="60" height="30" as="geometry" />
        </mxCell>
        <mxCell id="cq9fGqPeD2-OZJ-PsZSs-96" value="&lt;font style=&quot;font-size: 16px;&quot;&gt;Is&lt;/font&gt;" style="text;html=1;strokeColor=none;fillColor=none;align=center;verticalAlign=middle;whiteSpace=wrap;rounded=0;" vertex="1" parent="1">
          <mxGeometry x="-59.519999999999996" y="2670" width="60" height="30" as="geometry" />
        </mxCell>
        <mxCell id="cq9fGqPeD2-OZJ-PsZSs-99" value="&lt;font style=&quot;font-size: 16px;&quot;&gt;Were&lt;/font&gt;" style="text;html=1;strokeColor=none;fillColor=none;align=center;verticalAlign=middle;whiteSpace=wrap;rounded=0;" vertex="1" parent="1">
          <mxGeometry x="-59.519999999999996" y="2780" width="60" height="30" as="geometry" />
        </mxCell>
        <mxCell id="cq9fGqPeD2-OZJ-PsZSs-100" value="&lt;font style=&quot;font-size: 16px;&quot;&gt;Will&lt;/font&gt;" style="text;html=1;strokeColor=none;fillColor=none;align=center;verticalAlign=middle;whiteSpace=wrap;rounded=0;" vertex="1" parent="1">
          <mxGeometry x="-59.519999999999996" y="2515" width="60" height="30" as="geometry" />
        </mxCell>
        <mxCell id="cq9fGqPeD2-OZJ-PsZSs-101" value="" style="strokeWidth=2;html=1;shape=mxgraph.flowchart.annotation_2;align=left;labelPosition=right;pointerEvents=1;rotation=-180;" vertex="1" parent="1">
          <mxGeometry x="210.48" y="2720" width="20" height="60" as="geometry" />
        </mxCell>
        <mxCell id="cq9fGqPeD2-OZJ-PsZSs-102" value="&lt;font style=&quot;font-size: 16px;&quot;&gt;was&lt;/font&gt;" style="text;html=1;strokeColor=none;fillColor=none;align=center;verticalAlign=middle;whiteSpace=wrap;rounded=0;" vertex="1" parent="1">
          <mxGeometry x="220.00000000000003" y="2735" width="70" height="30" as="geometry" />
        </mxCell>
        <mxCell id="cq9fGqPeD2-OZJ-PsZSs-103" value="&lt;span style=&quot;font-size: 16px;&quot;&gt;were&lt;/span&gt;" style="text;html=1;strokeColor=none;fillColor=none;align=center;verticalAlign=middle;whiteSpace=wrap;rounded=0;" vertex="1" parent="1">
          <mxGeometry x="220.00000000000003" y="2785" width="70" height="30" as="geometry" />
        </mxCell>
        <mxCell id="cq9fGqPeD2-OZJ-PsZSs-106" value="" style="endArrow=none;html=1;rounded=0;entryX=0.995;entryY=0.201;entryDx=0;entryDy=0;entryPerimeter=0;exitX=-0.005;exitY=0.213;exitDx=0;exitDy=0;exitPerimeter=0;" edge="1" parent="1" source="cq9fGqPeD2-OZJ-PsZSs-68" target="cq9fGqPeD2-OZJ-PsZSs-68">
          <mxGeometry width="50" height="50" relative="1" as="geometry">
            <mxPoint x="-70" y="2614" as="sourcePoint" />
            <mxPoint x="10.000000000000007" y="2619.84" as="targetPoint" />
          </mxGeometry>
        </mxCell>
        <mxCell id="cq9fGqPeD2-OZJ-PsZSs-107" value="&lt;font style=&quot;font-size: 16px;&quot;&gt;Are&lt;/font&gt;" style="text;html=1;strokeColor=none;fillColor=none;align=center;verticalAlign=middle;whiteSpace=wrap;rounded=0;" vertex="1" parent="1">
          <mxGeometry x="-59.519999999999996" y="2620" width="60" height="30" as="geometry" />
        </mxCell>
        <mxCell id="cq9fGqPeD2-OZJ-PsZSs-111" value="" style="strokeWidth=2;html=1;shape=mxgraph.flowchart.annotation_2;align=left;labelPosition=right;pointerEvents=1;rotation=-180;" vertex="1" parent="1">
          <mxGeometry x="210" y="2620" width="20" height="40" as="geometry" />
        </mxCell>
        <mxCell id="cq9fGqPeD2-OZJ-PsZSs-112" value="&lt;font style=&quot;font-size: 16px;&quot;&gt;am&lt;/font&gt;" style="text;html=1;strokeColor=none;fillColor=none;align=center;verticalAlign=middle;whiteSpace=wrap;rounded=0;" vertex="1" parent="1">
          <mxGeometry x="215.48" y="2595" width="70" height="30" as="geometry" />
        </mxCell>
        <mxCell id="cq9fGqPeD2-OZJ-PsZSs-113" value="+ not" style="text;html=1;strokeColor=none;fillColor=none;align=center;verticalAlign=middle;whiteSpace=wrap;rounded=0;" vertex="1" parent="1">
          <mxGeometry x="374" y="2630" width="60" height="30" as="geometry" />
        </mxCell>
        <mxCell id="cq9fGqPeD2-OZJ-PsZSs-114" value="+ not" style="text;html=1;strokeColor=none;fillColor=none;align=center;verticalAlign=middle;whiteSpace=wrap;rounded=0;" vertex="1" parent="1">
          <mxGeometry x="384" y="2755" width="60" height="30" as="geometry" />
        </mxCell>
        <mxCell id="cq9fGqPeD2-OZJ-PsZSs-115" value="" style="strokeWidth=2;html=1;shape=mxgraph.flowchart.annotation_2;align=left;labelPosition=right;pointerEvents=1;rotation=-180;" vertex="1" parent="1">
          <mxGeometry x="210.48" y="2780" width="20" height="40" as="geometry" />
        </mxCell>
        <mxCell id="cq9fGqPeD2-OZJ-PsZSs-116" value="" style="endArrow=none;html=1;rounded=0;exitX=-0.006;exitY=0.625;exitDx=0;exitDy=0;exitPerimeter=0;entryX=1.006;entryY=0.629;entryDx=0;entryDy=0;entryPerimeter=0;" edge="1" parent="1">
          <mxGeometry width="50" height="50" relative="1" as="geometry">
            <mxPoint x="-69.52000000000001" y="2779.17" as="sourcePoint" />
            <mxPoint x="11.440000000000033" y="2779.65" as="targetPoint" />
          </mxGeometry>
        </mxCell>
        <mxCell id="cq9fGqPeD2-OZJ-PsZSs-118" value="&lt;span style=&quot;font-size: 16px;&quot;&gt;Was&lt;/span&gt;" style="text;html=1;strokeColor=none;fillColor=none;align=center;verticalAlign=middle;whiteSpace=wrap;rounded=0;" vertex="1" parent="1">
          <mxGeometry x="-59.519999999999996" y="2740" width="60" height="30" as="geometry" />
        </mxCell>
        <mxCell id="cq9fGqPeD2-OZJ-PsZSs-119" value="" style="rounded=0;whiteSpace=wrap;html=1;" vertex="1" parent="1">
          <mxGeometry x="490.48" y="2470" width="99.52" height="360" as="geometry" />
        </mxCell>
        <mxCell id="cq9fGqPeD2-OZJ-PsZSs-120" value="" style="strokeWidth=2;html=1;shape=mxgraph.flowchart.annotation_2;align=left;labelPosition=right;pointerEvents=1;rotation=-180;" vertex="1" parent="1">
          <mxGeometry x="510" y="2480" width="40" height="340" as="geometry" />
        </mxCell>
        <mxCell id="cq9fGqPeD2-OZJ-PsZSs-121" value="...ing" style="text;html=1;strokeColor=none;fillColor=none;align=center;verticalAlign=middle;whiteSpace=wrap;rounded=0;" vertex="1" parent="1">
          <mxGeometry x="540" y="2635" width="60" height="30" as="geometry" />
        </mxCell>
        <mxCell id="cq9fGqPeD2-OZJ-PsZSs-122" value="" style="rounded=0;whiteSpace=wrap;html=1;" vertex="1" parent="1">
          <mxGeometry x="-70" y="2830" width="560" height="40" as="geometry" />
        </mxCell>
        <mxCell id="cq9fGqPeD2-OZJ-PsZSs-123" value="Continuous" style="text;html=1;strokeColor=none;fillColor=none;align=center;verticalAlign=middle;whiteSpace=wrap;rounded=0;" vertex="1" parent="1">
          <mxGeometry x="160" y="2835" width="60" height="30" as="geometry" />
        </mxCell>
        <mxCell id="cq9fGqPeD2-OZJ-PsZSs-124" value="" style="rounded=0;whiteSpace=wrap;html=1;" vertex="1" parent="1">
          <mxGeometry x="-41" y="2240" width="560" height="40" as="geometry" />
        </mxCell>
        <mxCell id="cq9fGqPeD2-OZJ-PsZSs-125" value="Simple" style="text;html=1;strokeColor=none;fillColor=none;align=center;verticalAlign=middle;whiteSpace=wrap;rounded=0;" vertex="1" parent="1">
          <mxGeometry x="205" y="2245" width="60" height="30" as="geometry" />
        </mxCell>
        <mxCell id="cq9fGqPeD2-OZJ-PsZSs-126" value="kim" style="rounded=0;whiteSpace=wrap;html=1;fillColor=#dae8fc;strokeColor=#6c8ebf;" vertex="1" parent="1">
          <mxGeometry x="-800" y="1840" width="60" height="30" as="geometry" />
        </mxCell>
        <mxCell id="cq9fGqPeD2-OZJ-PsZSs-127" value="kimga" style="rounded=0;whiteSpace=wrap;html=1;fillColor=#d5e8d4;strokeColor=#82b366;" vertex="1" parent="1">
          <mxGeometry x="-740" y="1840" width="60" height="30" as="geometry" />
        </mxCell>
        <mxCell id="cq9fGqPeD2-OZJ-PsZSs-128" value="I" style="rounded=0;whiteSpace=wrap;html=1;fillColor=#dae8fc;strokeColor=#6c8ebf;" vertex="1" parent="1">
          <mxGeometry x="-800" y="1870" width="60" height="30" as="geometry" />
        </mxCell>
        <mxCell id="cq9fGqPeD2-OZJ-PsZSs-129" value="Me" style="rounded=0;whiteSpace=wrap;html=1;fillColor=#d5e8d4;strokeColor=#82b366;" vertex="1" parent="1">
          <mxGeometry x="-740" y="1870" width="60" height="30" as="geometry" />
        </mxCell>
        <mxCell id="cq9fGqPeD2-OZJ-PsZSs-130" value="He" style="rounded=0;whiteSpace=wrap;html=1;fillColor=#dae8fc;strokeColor=#6c8ebf;" vertex="1" parent="1">
          <mxGeometry x="-800" y="1930" width="60" height="30" as="geometry" />
        </mxCell>
        <mxCell id="cq9fGqPeD2-OZJ-PsZSs-131" value="You" style="rounded=0;whiteSpace=wrap;html=1;fillColor=#dae8fc;strokeColor=#6c8ebf;" vertex="1" parent="1">
          <mxGeometry x="-800" y="1900" width="60" height="30" as="geometry" />
        </mxCell>
        <mxCell id="cq9fGqPeD2-OZJ-PsZSs-132" value="They" style="rounded=0;whiteSpace=wrap;html=1;fillColor=#dae8fc;strokeColor=#6c8ebf;" vertex="1" parent="1">
          <mxGeometry x="-800" y="2020" width="60" height="30" as="geometry" />
        </mxCell>
        <mxCell id="cq9fGqPeD2-OZJ-PsZSs-133" value="She" style="rounded=0;whiteSpace=wrap;html=1;fillColor=#dae8fc;strokeColor=#6c8ebf;" vertex="1" parent="1">
          <mxGeometry x="-800" y="1960" width="60" height="30" as="geometry" />
        </mxCell>
        <mxCell id="cq9fGqPeD2-OZJ-PsZSs-134" value="We" style="rounded=0;whiteSpace=wrap;html=1;fillColor=#dae8fc;strokeColor=#6c8ebf;" vertex="1" parent="1">
          <mxGeometry x="-800" y="1990" width="60" height="30" as="geometry" />
        </mxCell>
        <mxCell id="cq9fGqPeD2-OZJ-PsZSs-136" value="Them" style="rounded=0;whiteSpace=wrap;html=1;fillColor=#d5e8d4;strokeColor=#82b366;" vertex="1" parent="1">
          <mxGeometry x="-740" y="2020" width="60" height="30" as="geometry" />
        </mxCell>
        <mxCell id="cq9fGqPeD2-OZJ-PsZSs-137" value="You" style="rounded=0;whiteSpace=wrap;html=1;fillColor=#d5e8d4;strokeColor=#82b366;" vertex="1" parent="1">
          <mxGeometry x="-740" y="1900" width="60" height="30" as="geometry" />
        </mxCell>
        <mxCell id="cq9fGqPeD2-OZJ-PsZSs-138" value="Him" style="rounded=0;whiteSpace=wrap;html=1;fillColor=#d5e8d4;strokeColor=#82b366;" vertex="1" parent="1">
          <mxGeometry x="-740" y="1930" width="60" height="30" as="geometry" />
        </mxCell>
        <mxCell id="cq9fGqPeD2-OZJ-PsZSs-139" value="Her" style="rounded=0;whiteSpace=wrap;html=1;fillColor=#d5e8d4;strokeColor=#82b366;" vertex="1" parent="1">
          <mxGeometry x="-740" y="1960" width="60" height="30" as="geometry" />
        </mxCell>
        <mxCell id="cq9fGqPeD2-OZJ-PsZSs-140" value="Us" style="rounded=0;whiteSpace=wrap;html=1;fillColor=#d5e8d4;strokeColor=#82b366;" vertex="1" parent="1">
          <mxGeometry x="-740" y="1990" width="60" height="30" as="geometry" />
        </mxCell>
        <mxCell id="cq9fGqPeD2-OZJ-PsZSs-142" value="Whot" style="rounded=0;whiteSpace=wrap;html=1;fillColor=#f8cecc;strokeColor=#b85450;" vertex="1" parent="1">
          <mxGeometry x="-640" y="1840" width="60" height="30" as="geometry" />
        </mxCell>
        <mxCell id="cq9fGqPeD2-OZJ-PsZSs-143" value="Haw" style="rounded=0;whiteSpace=wrap;html=1;fillColor=#f8cecc;strokeColor=#b85450;" vertex="1" parent="1">
          <mxGeometry x="-640" y="1990" width="60" height="30" as="geometry" />
        </mxCell>
        <mxCell id="cq9fGqPeD2-OZJ-PsZSs-144" value="Who" style="rounded=0;whiteSpace=wrap;html=1;fillColor=#f8cecc;strokeColor=#b85450;" vertex="1" parent="1">
          <mxGeometry x="-640" y="1870" width="60" height="30" as="geometry" />
        </mxCell>
        <mxCell id="cq9fGqPeD2-OZJ-PsZSs-145" value="Where" style="rounded=0;whiteSpace=wrap;html=1;fillColor=#f8cecc;strokeColor=#b85450;" vertex="1" parent="1">
          <mxGeometry x="-640" y="1900" width="60" height="30" as="geometry" />
        </mxCell>
        <mxCell id="cq9fGqPeD2-OZJ-PsZSs-146" value="When" style="rounded=0;whiteSpace=wrap;html=1;fillColor=#f8cecc;strokeColor=#b85450;" vertex="1" parent="1">
          <mxGeometry x="-640" y="1930" width="60" height="30" as="geometry" />
        </mxCell>
        <mxCell id="cq9fGqPeD2-OZJ-PsZSs-147" value="Why" style="rounded=0;whiteSpace=wrap;html=1;fillColor=#f8cecc;strokeColor=#b85450;" vertex="1" parent="1">
          <mxGeometry x="-640" y="1960" width="60" height="30" as="geometry" />
        </mxCell>
        <mxCell id="cq9fGqPeD2-OZJ-PsZSs-148" value="Qanaqa / Nima" style="rounded=0;whiteSpace=wrap;html=1;fillColor=#e1d5e7;strokeColor=#9673a6;" vertex="1" parent="1">
          <mxGeometry x="-580" y="1840" width="130" height="30" as="geometry" />
        </mxCell>
        <mxCell id="cq9fGqPeD2-OZJ-PsZSs-149" value="Kim" style="rounded=0;whiteSpace=wrap;html=1;fillColor=#e1d5e7;strokeColor=#9673a6;" vertex="1" parent="1">
          <mxGeometry x="-580" y="1870" width="130" height="30" as="geometry" />
        </mxCell>
        <mxCell id="cq9fGqPeD2-OZJ-PsZSs-150" value="Qaytib / Qanday qilib" style="rounded=0;whiteSpace=wrap;html=1;fillColor=#e1d5e7;strokeColor=#9673a6;" vertex="1" parent="1">
          <mxGeometry x="-580" y="1990" width="130" height="30" as="geometry" />
        </mxCell>
        <mxCell id="cq9fGqPeD2-OZJ-PsZSs-151" value="Qayer / Qayerga" style="rounded=0;whiteSpace=wrap;html=1;fillColor=#e1d5e7;strokeColor=#9673a6;" vertex="1" parent="1">
          <mxGeometry x="-580" y="1900" width="130" height="30" as="geometry" />
        </mxCell>
        <mxCell id="cq9fGqPeD2-OZJ-PsZSs-152" value="Qachon" style="rounded=0;whiteSpace=wrap;html=1;fillColor=#e1d5e7;strokeColor=#9673a6;" vertex="1" parent="1">
          <mxGeometry x="-580" y="1930" width="130" height="30" as="geometry" />
        </mxCell>
        <mxCell id="cq9fGqPeD2-OZJ-PsZSs-153" value="Nimaga / Nima uchun" style="rounded=0;whiteSpace=wrap;html=1;fillColor=#e1d5e7;strokeColor=#9673a6;" vertex="1" parent="1">
          <mxGeometry x="-580" y="1960" width="130" height="30" as="geometry" />
        </mxCell>
        <mxCell id="cq9fGqPeD2-OZJ-PsZSs-154" value="in" style="rounded=0;whiteSpace=wrap;html=1;" vertex="1" parent="1">
          <mxGeometry x="-430" y="1840" width="60" height="30" as="geometry" />
        </mxCell>
        <mxCell id="cq9fGqPeD2-OZJ-PsZSs-155" value="to" style="rounded=0;whiteSpace=wrap;html=1;" vertex="1" parent="1">
          <mxGeometry x="-430" y="1870" width="60" height="30" as="geometry" />
        </mxCell>
        <mxCell id="cq9fGqPeD2-OZJ-PsZSs-156" value="from" style="rounded=0;whiteSpace=wrap;html=1;" vertex="1" parent="1">
          <mxGeometry x="-430" y="1900" width="60" height="30" as="geometry" />
        </mxCell>
        <mxCell id="cq9fGqPeD2-OZJ-PsZSs-157" value="there" style="rounded=0;whiteSpace=wrap;html=1;" vertex="1" parent="1">
          <mxGeometry x="-430" y="1960" width="60" height="30" as="geometry" />
        </mxCell>
        <mxCell id="cq9fGqPeD2-OZJ-PsZSs-158" value="here" style="rounded=0;whiteSpace=wrap;html=1;" vertex="1" parent="1">
          <mxGeometry x="-430" y="1930" width="60" height="30" as="geometry" />
        </mxCell>
        <mxCell id="cq9fGqPeD2-OZJ-PsZSs-159" value="ichida" style="rounded=0;whiteSpace=wrap;html=1;fillColor=#ffe6cc;strokeColor=#d79b00;" vertex="1" parent="1">
          <mxGeometry x="-370" y="1840" width="170" height="30" as="geometry" />
        </mxCell>
        <mxCell id="cq9fGqPeD2-OZJ-PsZSs-160" value="o&#39;sha yerda / o&#39;sha yerga" style="rounded=0;whiteSpace=wrap;html=1;fillColor=#ffe6cc;strokeColor=#d79b00;" vertex="1" parent="1">
          <mxGeometry x="-370" y="1960" width="170" height="30" as="geometry" />
        </mxCell>
        <mxCell id="cq9fGqPeD2-OZJ-PsZSs-161" value="qayerga / nimaga / kimga" style="rounded=0;whiteSpace=wrap;html=1;fillColor=#ffe6cc;strokeColor=#d79b00;" vertex="1" parent="1">
          <mxGeometry x="-370" y="1870" width="170" height="30" as="geometry" />
        </mxCell>
        <mxCell id="cq9fGqPeD2-OZJ-PsZSs-162" value="qayerdan / kimdan / nimadan" style="rounded=0;whiteSpace=wrap;html=1;fillColor=#ffe6cc;strokeColor=#d79b00;" vertex="1" parent="1">
          <mxGeometry x="-370" y="1900" width="170" height="30" as="geometry" />
        </mxCell>
        <mxCell id="cq9fGqPeD2-OZJ-PsZSs-163" value="buyerda / bu yerga" style="rounded=0;whiteSpace=wrap;html=1;fillColor=#ffe6cc;strokeColor=#d79b00;" vertex="1" parent="1">
          <mxGeometry x="-370" y="1930" width="170" height="30" as="geometry" />
        </mxCell>
      </root>
    </mxGraphModel>
  </diagram>
</mxfile>
